<?xml version="1.0" encoding="UTF-8"?>
<svg version="1.1" xmlns="http://www.w3.org/2000/svg" width="225" height="225">
<path d="M0 0 C74.25 0 148.5 0 225 0 C225 74.25 225 148.5 225 225 C150.75 225 76.5 225 0 225 C0 150.75 0 76.5 0 0 Z " fill="#FAFBFA" transform="translate(0,0)"/>
<path d="M0 0 C2.31 0 4.62 0 7 0 C7 55.44 7 110.88 7 168 C5.02 168 3.04 168 1 168 C1 141.6 1 115.2 1 88 C-25.73 88 -52.46 88 -80 88 C-80 85.69 -80 83.38 -80 81 C-69.77 81 -59.54 81 -49 81 C-49 80.01 -49 79.02 -49 78 C-59.23 77.67 -69.46 77.34 -80 77 C-77.54888187 54.93993684 -68.16628926 34.57515126 -51 20 C-36.69558265 8.89550557 -19.54202964 0.0409295 -1 1 C-0.67 0.67 -0.34 0.34 0 0 Z " fill="#F4EEEC" transform="translate(100,28)"/>
<path d="M0 0 C37.62 0 75.24 0 114 0 C114 11.55 114 23.1 114 35 C76.38 35 38.76 35 0 35 C0 23.45 0 11.9 0 0 Z " fill="#F1F1F0" transform="translate(111,106)"/>
<path d="M0 0 C23.36502269 2.33650227 42.4347682 12.6297172 57.9375 30.1953125 C59.40150173 32.07868972 60.71780729 33.9891077 62 36 C62.49757812 36.74378906 62.99515625 37.48757812 63.5078125 38.25390625 C70.70945653 49.52683145 75 61.64106315 75 75 C63.12 75 51.24 75 39 75 C37.02 69.72 35.04 64.44 33 59 C26.21667567 48.35949125 16.82161483 42.07502764 5 38 C3.35 37.34 1.7 36.68 0 36 C0 24.12 0 12.24 0 0 Z " fill="#258FCE" transform="translate(112,29)"/>
<path d="M0 0 C11.88 0 23.76 0 36 0 C37.65 4.62 39.3 9.24 41 14 C50.12196833 28.53330547 58.2064119 32.70240446 75 39 C75 50.88 75 62.76 75 75 C51.52513621 72.86592147 32.88811423 62.60475004 17.31640625 44.83984375 C6.91542856 32.08856081 0 16.5620666 0 0 Z " fill="#2A276A" transform="translate(21,121)"/>
<path d="M0 0 C0 11.88 0 23.76 0 36 C-5.28 37.98 -10.56 39.96 -16 42 C-19.46136519 44.32164739 -22.10002251 46.18109715 -25 49 C-25.82177734 49.78117187 -25.82177734 49.78117187 -26.66015625 50.578125 C-33.11078242 57.37520424 -36.46832131 66.1391246 -39 75 C-50.88 75 -62.76 75 -75 75 C-75 54.84668 -64.78284696 37.2570335 -51.25 22.8125 C-37.74615709 9.95042388 -18.89414468 0 0 0 Z " fill="#D92527" transform="translate(96,29)"/>
<path d="M0 0 C13.53 0 27.06 0 41 0 C39.48656956 7.5671522 36.49944305 13.72804908 32 20 C31.63132813 20.56460938 31.26265625 21.12921875 30.8828125 21.7109375 C28.24676372 25.65639613 25.37564665 28.59925706 21.69921875 31.58984375 C19.77277658 33.14429999 19.77277658 33.14429999 17.3125 35.6875 C15.28745208 37.71254792 13.41692003 39.46928398 11 41 C10.01 41 9.02 41 8 41 C8 41.66 8 42.32 8 43 C1.32881233 47.8876891 -4.71416334 50.86190272 -13 51 C-13 51.66 -13 52.32 -13 53 C-15.64 53 -18.28 53 -21 53 C-21 53.66 -21 54.32 -21 55 C-23.64 55 -26.28 55 -29 55 C-29 43.12 -29 31.24 -29 19 C-25.7 17.68 -22.4 16.36 -19 15 C-12.95593284 12.15273463 -7.82844369 9.6594385 -4 4 C-3.34 4 -2.68 4 -2 4 C-1.34 2.68 -0.68 1.36 0 0 Z " fill="#F9EC25" transform="translate(141,141)"/>
<path d="M0 0 C37.62 0 75.24 0 114 0 C114 11.55 114 23.1 114 35 C76.38 35 38.76 35 0 35 C0 23.45 0 11.9 0 0 Z M2 2 C2.33 2.66 2.66 3.32 3 4 C28.08 3.67 53.16 3.34 79 3 C78.34 4.65 77.68 6.3 77 8 C79.31 8.33 81.62 8.66 84 9 C84 9.99 84 10.98 84 12 C82.68 12 81.36 12 80 12 C80 16.62 80 21.24 80 26 C79.34 26 78.68 26 78 26 C78 21.38 78 16.76 78 12 C76.35 12.66 74.7 13.32 73 14 C73 17.96 73 21.92 73 26 C72.01 26 71.02 26 70 26 C69.896875 25.2575 69.79375 24.515 69.6875 23.75 C69.08135049 20.56949927 69.08135049 20.56949927 66 17 C66 20.3 66 23.6 66 27 C65.01 27 64.02 27 63 27 C63 22.05 63 17.1 63 12 C60.36 12 57.72 12 55 12 C55 13.32 55 14.64 55 16 C56.98 16 58.96 16 61 16 C61 16.99 61 17.98 61 19 C59.02 19 57.04 19 55 19 C55 20.65 55 22.3 55 24 C56.98 24 58.96 24 61 24 C61 24.66 61 25.32 61 26 C58.03 26 55.06 26 52 26 C52 23.36 52 20.72 52 18 C49.36 18.66 46.72 19.32 44 20 C44 22.31 44 24.62 44 27 C43.01 27 42.02 27 41 27 C41 23.7 41 20.4 41 17 C40.34 17.66 39.68 18.32 39 19 C37.01178687 19.39764263 35.01055661 19.73775349 33 20 C33 21.98 33 23.96 33 26 C32.34 26 31.68 26 31 26 C31 20.39 31 14.78 31 9 C30.01 9 29.02 9 28 9 C27.90912109 10.58941406 27.90912109 10.58941406 27.81640625 12.2109375 C27.73199873 13.59897221 27.64735083 14.98699232 27.5625 16.375 C27.52318359 17.07367188 27.48386719 17.77234375 27.44335938 18.4921875 C27.11328125 23.7734375 27.11328125 23.7734375 26 26 C23.4375 26.625 23.4375 26.625 21 27 C19.81304447 23.43913342 19.64904582 20.02668976 19.4375 16.3125 C19.39431641 15.61060547 19.35113281 14.90871094 19.30664062 14.18554688 C19.2008264 12.45724794 19.09993419 10.7286489 19 9 C18.34 9 17.68 9 17 9 C13.92291196 14.93438408 12.51263525 19.29873464 13 26 C12.34 26 11.68 26 11 26 C11.061875 24.824375 11.12375 23.64875 11.1875 22.4375 C11.21144173 17.96039699 9.9879056 14.9758112 8 11 C7.34 11 6.68 11 6 11 C6 10.34 6 9.68 6 9 C5.01 9.495 5.01 9.495 4 10 C3.01 10.495 3.01 10.495 2 11 C2 18.59 2 26.18 2 34 C38.3 34 74.6 34 112 34 C112 23.44 112 12.88 112 2 C75.7 2 39.4 2 2 2 Z " fill="#F9F9F7" transform="translate(111,106)"/>
<path d="M0 0 C1.98 0 3.96 0 6 0 C6 55.44 6 110.88 6 168 C4.02 168 2.04 168 0 168 C0 141.6 0 115.2 0 88 C-26.73 88 -53.46 88 -81 88 C-81 85.69 -81 83.38 -81 81 C-54.27 81 -27.54 81 0 81 C0 54.27 0 27.54 0 0 Z " fill="#0A0806" transform="translate(101,28)"/>
<path d="M0 0 C8.57142857 1 8.57142857 1 12 2 C12.33 1.34 12.66 0.68 13 0 C14.5 1.375 14.5 1.375 16 3 C16 5 16 5 14.5 6.625 C14.005 7.07875 13.51 7.5325 13 8 C14.32 8 15.64 8 17 8 C16.43136944 11.57536201 15.25374027 12.9569879 12.5625 15.3125 C-1.69813485 29.13789106 -7.77429217 47.08374319 -12 66 C-14 64 -14 64 -14.125 61.375 C-14.063125 60.199375 -14.063125 60.199375 -14 59 C-14.66 59 -15.32 59 -16 59 C-16 59.66 -16 60.32 -16 61 C-19.70503641 60.39665691 -21.85968148 58.77525763 -24.75 56.4375 C-25.94882812 55.47650391 -25.94882812 55.47650391 -27.171875 54.49609375 C-27.77515625 54.00238281 -28.3784375 53.50867188 -29 53 C-28.67 52.34 -28.34 51.68 -28 51 C-25.05859375 50.3671875 -25.05859375 50.3671875 -21.4375 49.875 C-19.64119141 49.62363281 -19.64119141 49.62363281 -17.80859375 49.3671875 C-16.88175781 49.24601562 -15.95492188 49.12484375 -15 49 C-15 48.34 -15 47.68 -15 47 C-15.62648438 46.79503906 -16.25296875 46.59007812 -16.8984375 46.37890625 C-17.71570312 46.10949219 -18.53296875 45.84007812 -19.375 45.5625 C-20.18710937 45.29566406 -20.99921875 45.02882812 -21.8359375 44.75390625 C-24 44 -24 44 -26 43 C-26 42.34 -26 41.68 -26 41 C-22.37 40.01 -18.74 39.02 -15 38 C-17.64 37.01 -20.28 36.02 -23 35 C-23 34.34 -23 33.68 -23 33 C-21.56068883 33.45261358 -20.12361001 33.91232979 -18.6875 34.375 C-17.48673828 34.75785156 -17.48673828 34.75785156 -16.26171875 35.1484375 C-14 36 -14 36 -11 38 C-11.33 38.99 -11.66 39.98 -12 41 C-11.60602665 43.63804589 -11.60602665 43.63804589 -11 46 C-8.77174356 43.77174356 -8.30760631 42.34238372 -7.375 39.375 C-6.98441406 38.14910156 -6.98441406 38.14910156 -6.5859375 36.8984375 C-6.39257812 36.27195313 -6.19921875 35.64546875 -6 35 C-6.99 34.34 -7.98 33.68 -9 33 C-9 33.66 -9 34.32 -9 35 C-10.485 34.505 -10.485 34.505 -12 34 C-11.67 33.01 -11.34 32.02 -11 31 C-10.01 30.67 -9.02 30.34 -8 30 C-12.455 27.03 -12.455 27.03 -17 24 C-16.19746021 20.78984085 -15.37418582 17.99087501 -14 15 C-13.34 14.67 -12.68 14.34 -12 14 C-11.67 13.34 -11.34 12.68 -11 12 C-6.29126058 5.3586835 -6.29126058 5.3586835 -1.625 4.0625 C-0.75875 4.041875 0.1075 4.02125 1 4 C0.67 2.68 0.34 1.36 0 0 Z " fill="#F6F4F4" transform="translate(32,38)"/>
<path d="M0 0 C0.144375 0.78375 0.28875 1.5675 0.4375 2.375 C0.87798925 4.96421018 0.87798925 4.96421018 2 7 C3.64363134 7.72159424 5.31050386 8.39351421 7 9 C7 7.35 7 5.7 7 4 C7.66 4 8.32 4 9 4 C10.04174694 5.54287884 11.0062759 7.13800326 11.9375 8.75 C17.39853703 17.58134231 24.12649853 25.48826561 33 31 C32.34 31.99 31.68 32.98 31 34 C30.34 34 29.68 34 29 34 C29.33 34.99 29.66 35.98 30 37 C30.66 36.67 31.32 36.34 32 36 C32 36.99 32 37.98 32 39 C32.66 39 33.32 39 34 39 C34.495 40.98 34.495 40.98 35 43 C34.05125 43.598125 33.1025 44.19625 32.125 44.8125 C28.86035803 46.81562526 28.86035803 46.81562526 27 50 C26.236875 49.690625 25.47375 49.38125 24.6875 49.0625 C22.81210323 48.32106407 20.91315348 47.63771783 19 47 C18.67 45.02 18.34 43.04 18 41 C17.40574219 41.22171875 16.81148437 41.4434375 16.19921875 41.671875 C14 42 14 42 12.33203125 40.890625 C11.57986328 40.07851562 11.57986328 40.07851562 10.8125 39.25 C10.30332031 38.71890625 9.79414063 38.1878125 9.26953125 37.640625 C8 36 8 36 7 33 C5.515 32.505 5.515 32.505 4 32 C4.26041667 30.01432292 4.52083333 28.02864583 4.78125 26.04296875 C5.053233 23.84528294 5.053233 23.84528294 5 21 C4.21625 21.66 3.4325 22.32 2.625 23 C0 25 0 25 -2 25 C-3.38232443 23.37373596 -4.71937515 21.7074998 -6 20 C-5.34 19.21625 -4.68 18.4325 -4 17.625 C-1.79798559 15.28487188 -1.79798559 15.28487188 -2 13 C-3.98 13.33 -5.96 13.66 -8 14 C-7.32902328 9.80639551 -5.1441606 6.59665648 -3 3 C-3.928125 3.515625 -4.85625 4.03125 -5.8125 4.5625 C-9 6 -9 6 -12 5 C-10.37750059 4.16180842 -8.75191503 3.3295884 -7.125 2.5 C-6.22007813 2.0359375 -5.31515625 1.571875 -4.3828125 1.09375 C-2 0 -2 0 0 0 Z " fill="#F4F4F5" transform="translate(22,149)"/>
<path d="M0 0 C10.89 0 21.78 0 33 0 C33 10.89 33 21.78 33 33 C21.92467313 31.61558414 13.9059369 26.87272407 7 18 C3.38244914 12.01015543 1.15696987 6.9418192 0 0 Z " fill="#2A276B" transform="translate(63,120)"/>
<path d="M0 0 C0 10.89 0 21.78 0 33 C-10.89 33 -21.78 33 -33 33 C-30.21254299 21.85017196 -26.09518677 14.24623999 -17 7 C-5.18658281 0 -5.18658281 0 0 0 Z " fill="#DA2526" transform="translate(96,71)"/>
<path d="M0 0 C11.91611424 3.57483427 21.79123092 8.65045949 28.57421875 19.5234375 C31.04544535 24.23930258 32.10007662 27.60045971 33 33 C22.11 33 11.22 33 0 33 C0 22.11 0 11.22 0 0 Z " fill="#2490CE" transform="translate(112,71)"/>
<path d="M0 0 C14.19 0 28.38 0 43 0 C42.67 1.32 42.34 2.64 42 4 C43.98 4.66 45.96 5.32 48 6 C48 6.99 48 7.98 48 9 C46.68 9 45.36 9 44 9 C44 13.62 44 18.24 44 23 C43.34 23 42.68 23 42 23 C42 18.38 42 13.76 42 9 C40.35 9.66 38.7 10.32 37 11 C37 14.96 37 18.92 37 23 C36.01 23 35.02 23 34 23 C33.01 20.69 32.02 18.38 31 16 C30.67 18.64 30.34 21.28 30 24 C29.01 24 28.02 24 27 24 C27 19.05 27 14.1 27 9 C24.36 9 21.72 9 19 9 C19 10.32 19 11.64 19 13 C20.98 13 22.96 13 25 13 C25 13.99 25 14.98 25 16 C23.02 16 21.04 16 19 16 C19 17.65 19 19.3 19 21 C20.98 21 22.96 21 25 21 C25 21.66 25 22.32 25 23 C22.03 23 19.06 23 16 23 C15.67 20.69 15.34 18.38 15 16 C12.69 16.33 10.38 16.66 8 17 C8 19.31 8 21.62 8 24 C7.01 24 6.02 24 5 24 C4.67 21.36 4.34 18.72 4 16 C3.01 16 2.02 16 1 16 C1.33 15.67 1.66 15.34 2 15 C2.21326403 9.3952291 2.21326403 9.3952291 1 4 C1.66 3.34 2.32 2.68 3 2 C2.01 1.34 1.02 0.68 0 0 Z " fill="#EBEBE9" transform="translate(147,109)"/>
<path d="M0 0 C0 0.66 0 1.32 0 2 C-0.804375 2.474375 -1.60875 2.94875 -2.4375 3.4375 C-5.2918076 4.79983672 -5.2918076 4.79983672 -6 8 C-3.35853394 9.58487964 -1.62601089 10.04007026 1.5 10.375 C5 11 5 11 7.4375 12.6875 C9.47462614 15.70244669 9.53180853 17.42928558 9 21 C7.625 22.875 7.625 22.875 6 24 C5.34 24 4.68 24 4 24 C4.33 24.99 4.66 25.98 5 27 C5.928125 26.938125 6.85625 26.87625 7.8125 26.8125 C11 27 11 27 12.8125 28.125 C14.46289603 30.73088847 14.8048537 32.9427079 15 36 C14.34 36.66 13.68 37.32 13 38 C13.33 38.66 13.66 39.32 14 40 C13.505 40.99 13.505 40.99 13 42 C13.99 42 14.98 42 16 42 C16 42.66 16 43.32 16 44 C9.565 44.495 9.565 44.495 3 45 C3 44.34 3 43.68 3 43 C3.99 43 4.98 43 6 43 C6 42.34 6 41.68 6 41 C5.195625 40.21625 4.39125 39.4325 3.5625 38.625 C1 36 1 36 0 32 C-0.99 34.64 -1.98 37.28 -3 40 C-4.65942911 36.91404411 -5.72455433 33.84619114 -6.75 30.5 C-9.87682644 20.9684101 -14.52485633 12.37374914 -20 4 C-19.01 4 -18.02 4 -17 4 C-16.34 4.66 -15.68 5.32 -15 6 C-10.46718166 4.63434319 -4.14479158 0 0 0 Z " fill="#EFF5F6" transform="translate(190,56)"/>
<path d="M0 0 C3.71888239 0.50712033 6.73454239 1.11608215 10 3 C6.79937313 4.60031344 4.27728194 3.03173691 1 2 C1 2.99 1 3.98 1 5 C2.94009522 6.70532323 2.94009522 6.70532323 5 8 C2.03 7.505 2.03 7.505 -1 7 C-1 8.32 -1 9.64 -1 11 C1.29629994 12.14814997 3.07698086 12.30769809 5.625 12.5625 C6.44226563 12.64628906 7.25953125 12.73007812 8.1015625 12.81640625 C8.72804687 12.87699219 9.35453125 12.93757813 10 13 C10.28875 12.21625 10.5775 11.4325 10.875 10.625 C12 8 12 8 14 6 C13.49396008 8.16874252 13.00016187 9.99967627 12 12 C15.3 11.34 18.6 10.68 22 10 C22 10.66 22 11.32 22 12 C19.69 12.33 17.38 12.66 15 13 C15.33 13.66 15.66 14.32 16 15 C16.13415472 17.6723621 16.04318541 20.32250488 16 23 C19.60062011 20.22237877 22.83047153 17.26008643 26 14 C26.495 19.445 26.495 19.445 27 25 C28.98 23.35 30.96 21.7 33 20 C32.67 21.98 32.34 23.96 32 26 C32.63808594 26.12117188 33.27617187 26.24234375 33.93359375 26.3671875 C34.75988281 26.53476562 35.58617187 26.70234375 36.4375 26.875 C37.26121094 27.03742187 38.08492187 27.19984375 38.93359375 27.3671875 C39.95646484 27.68042969 39.95646484 27.68042969 41 28 C42.54163175 31.0832635 42.29747535 33.60878099 42 37 C40.4375 39 40.4375 39 38 40 C34.375 39.875 34.375 39.875 31 39 C29 36 29 36 29 32 C28.01 32.33 27.02 32.66 26 33 C23 33 23 33 20 31 C19.01 31.33 18.02 31.66 17 32 C14.86328125 30.62890625 14.86328125 30.62890625 12.3125 28.5625 C7.62898971 25.0045329 2.90129746 22.21808577 -2.375 19.625 C-3.05264404 19.29185791 -3.73028809 18.95871582 -4.4284668 18.61547852 C-7.90252065 16.93765129 -11.39622225 15.37750578 -15 14 C-15 13.67 -15 13.34 -15 13 C-13.00045254 12.95745644 -10.99958364 12.95919217 -9 13 C-8.67 13.33 -8.34 13.66 -8 14 C-7.54625 13.34 -7.0925 12.68 -6.625 12 C-6.08875 11.34 -5.5525 10.68 -5 10 C-4.34 10 -3.68 10 -3 10 C-2.87625 9.278125 -2.7525 8.55625 -2.625 7.8125 C-2.0095069 5.04278106 -1.11555626 2.6029646 0 0 Z " fill="#B1B2B3" transform="translate(143,18)"/>
<path d="M0 0 C26.73 0 53.46 0 81 0 C80.33333333 2 79.66666667 4 79 6 C79.99 6.495 79.99 6.495 81 7 C54.27 7 27.54 7 0 7 C0 4.69 0 2.38 0 0 Z " fill="#25221D" transform="translate(20,109)"/>
<path d="M0 0 C0.6875 1.75 0.6875 1.75 1 4 C-0.7573799 7.07541482 -1.57945994 7.85981998 -5 9 C-5 11.62113708 -4.68707555 13.50935112 -4 16 C-3.34 16 -2.68 16 -2 16 C-2 16.66 -2 17.32 -2 18 C-4.31 18.66 -6.62 19.32 -9 20 C-9 20.66 -9 21.32 -9 22 C-8.37351563 21.90460938 -7.74703125 21.80921875 -7.1015625 21.7109375 C-6.28429687 21.60007813 -5.46703125 21.48921875 -4.625 21.375 C-3.40683594 21.20097656 -3.40683594 21.20097656 -2.1640625 21.0234375 C-1.44992188 21.01570313 -0.73578125 21.00796875 0 21 C0.66 21.66 1.32 22.32 2 23 C1.8125 25 1.8125 25 1 27 C-2 29 -2 29 -4.1875 28.625 C-4.785625 28.41875 -5.38375 28.2125 -6 28 C-6 27.67 -6 27.34 -6 27 C-4.35 26.67 -2.7 26.34 -1 26 C-0.505 24.515 -0.505 24.515 0 23 C-0.69867188 23.09539062 -1.39734375 23.19078125 -2.1171875 23.2890625 C-3.02726562 23.39992187 -3.93734375 23.51078125 -4.875 23.625 C-6.23238281 23.79902344 -6.23238281 23.79902344 -7.6171875 23.9765625 C-8.40351563 23.98429687 -9.18984375 23.99203125 -10 24 C-10.66 23.34 -11.32 22.68 -12 22 C-12 26.29 -12 30.58 -12 35 C-13.32 34.67 -14.64 34.34 -16 34 C-18.21771064 34.85790183 -18.21771064 34.85790183 -20 36 C-20.33 35.67 -20.66 35.34 -21 35 C-21 36.65 -21 38.3 -21 40 C-25.10958767 38.54955729 -28.43258745 36.48889248 -32 34 C-31.34 36.97 -30.68 39.94 -30 43 C-32.34914492 40.65085508 -32.73140357 39.04320554 -33.625 35.875 C-33.88539063 34.96492188 -34.14578125 34.05484375 -34.4140625 33.1171875 C-34.60742188 32.41851562 -34.80078125 31.71984375 -35 31 C-31.40608886 32.33488128 -28.24509304 33.96022723 -25 36 C-25.33 33.69 -25.66 31.38 -26 29 C-26.66 29 -27.32 29 -28 29 C-28.66 27.68 -29.32 26.36 -30 25 C-30.66 25 -31.32 25 -32 25 C-32.33 25.66 -32.66 26.32 -33 27 C-33.66 26.67 -34.32 26.34 -35 26 C-35 26.66 -35 27.32 -35 28 C-36.134375 27.979375 -37.26875 27.95875 -38.4375 27.9375 C-41.81575674 27.58422523 -41.81575674 27.58422523 -43 29 C-44.85287502 29.07226502 -46.70833878 29.0838122 -48.5625 29.0625 C-49.57441406 29.05347656 -50.58632812 29.04445312 -51.62890625 29.03515625 C-52.41136719 29.02355469 -53.19382812 29.01195312 -54 29 C-54 28.67 -54 28.34 -54 28 C-51.36 28 -48.72 28 -46 28 C-46 27.34 -46 26.68 -46 26 C-43.36 26 -40.72 26 -38 26 C-38 25.34 -38 24.68 -38 24 C-36.72125 23.79375 -35.4425 23.5875 -34.125 23.375 C-29.11093246 22.29431349 -25.3273805 20.02949147 -21.06640625 17.2421875 C-19 16 -19 16 -17 16 C-17 15.34 -17 14.68 -17 14 C-15.9275 13.38125 -14.855 12.7625 -13.75 12.125 C-12.79287109 11.57199219 -12.79287109 11.57199219 -11.81640625 11.0078125 C-10 10 -10 10 -7.6875 9 C-5.47738763 7.69030378 -5.08298065 6.30133389 -4 4 C-2.70529025 2.62913085 -1.37849103 1.28659163 0 0 Z " fill="#FBFBED" transform="translate(166,168)"/>
<path d="M0 0 C37.62 0 75.24 0 114 0 C114 11.55 114 23.1 114 35 C76.38 35 38.76 35 0 35 C0 23.45 0 11.9 0 0 Z M2 2 C2 12.56 2 23.12 2 34 C38.3 34 74.6 34 112 34 C112 23.44 112 12.88 112 2 C75.7 2 39.4 2 2 2 Z " fill="#454546" transform="translate(111,106)"/>
<path d="M0 0 C10.10398843 1.55859396 19.81633539 9.34565853 25.7890625 17.41796875 C29.50495521 23.32129584 33 29.89052498 33 37 C44.88 37 56.76 37 69 37 C69.495 36.01 69.495 36.01 70 35 C70.33 35.99 70.66 36.98 71 38 C44.99310071 38.94342442 19.02247052 39.11189787 -7 39 C-7 27.78 -7 16.56 -7 5 C-6.67 5 -6.34 5 -6 5 C-6 15.56 -6 26.12 -6 37 C4.89 37 15.78 37 27 37 C21.17320852 23.01570044 15.77913157 12.93070841 1.375 6.9375 C-0.40880453 6.27025826 -2.1979185 5.61617563 -4 5 C-4 4.67 -4 4.34 -4 4 C-1.69 4 0.62 4 3 4 C2.01 2.68 1.02 1.36 0 0 Z " fill="#D9F0F8" transform="translate(118,67)"/>
<path d="M0 0 C0.66 0 1.32 0 2 0 C2 0.66 2 1.32 2 2 C2.66 2 3.32 2 4 2 C6.68219822 7.36439644 7.3152595 11.01006953 7 17 C7.66 17 8.32 17 9 17 C8.9175 15.865625 8.835 14.73125 8.75 13.5625 C8.71331044 8.43513383 10.6774442 4.47921476 13 0 C13.66 0 14.32 0 15 0 C15.06058594 1.04800781 15.12117188 2.09601563 15.18359375 3.17578125 C15.26801738 4.55470048 15.35266447 5.93360605 15.4375 7.3125 C15.47681641 8.00279297 15.51613281 8.69308594 15.55664062 9.40429688 C15.74927415 12.47161535 16.02322717 15.06968152 17 18 C18.2065625 17.9690625 18.2065625 17.9690625 19.4375 17.9375 C22 18 22 18 23 19 C23.33 18.34 23.66 17.68 24 17 C24.66 17 25.32 17 26 17 C25.67 18.32 25.34 19.64 25 21 C25.99 21.33 26.98 21.66 28 22 C28 22.66 28 23.32 28 24 C18.1 24 8.2 24 -2 24 C-2 16.74 -2 9.48 -2 2 C-1.34 1.67 -0.68 1.34 0 1 C0 0.67 0 0.34 0 0 Z " fill="#F8F7F7" transform="translate(115,115)"/>
<path d="M0 0 C0.66 0.33 1.32 0.66 2 1 C1.34 1.99 0.68 2.98 0 4 C0.25690566 7.85358487 2.55634629 10.1622086 5 13 C2.04590299 11.62845496 -0.44008376 10.01136276 -3 8 C-3.33 10.31 -3.66 12.62 -4 15 C-5.98 15.33 -7.96 15.66 -10 16 C-9.67 16.66 -9.34 17.32 -9 18 C-4.05 18 0.9 18 6 18 C6 18.33 6 18.66 6 19 C3.12543719 19.64783124 0.25038241 20.29332518 -2.625 20.9375 C-3.43324219 21.11990234 -4.24148437 21.30230469 -5.07421875 21.49023438 C-9.36898181 22.45044563 -13.64777849 23.33096919 -18 24 C-17.67 22.35 -17.34 20.7 -17 19 C-22.445 20.485 -22.445 20.485 -28 22 C-28.825 20.576875 -29.65 19.15375 -30.5 17.6875 C-30.9640625 16.88699219 -31.428125 16.08648438 -31.90625 15.26171875 C-33 13 -33 13 -33 10 C-32.34 10 -31.68 10 -31 10 C-30.67 11.65 -30.34 13.3 -30 15 C-29.73445313 14.43410156 -29.46890625 13.86820313 -29.1953125 13.28515625 C-28.66550781 12.18494141 -28.66550781 12.18494141 -28.125 11.0625 C-27.77695312 10.33160156 -27.42890625 9.60070312 -27.0703125 8.84765625 C-26 7 -26 7 -24 6 C-20.04437178 5.74202425 -17.40340307 5.90559811 -14 8 C-13.67 6.35 -13.34 4.7 -13 3 C-10.77174356 5.22825644 -10.30760631 6.65761628 -9.375 9.625 C-8.98441406 10.85089844 -8.98441406 10.85089844 -8.5859375 12.1015625 C-8.39257812 12.72804688 -8.19921875 13.35453125 -8 14 C-7.67 14 -7.34 14 -7 14 C-7 10.04 -7 6.08 -7 2 C-6.01 3.32 -5.02 4.64 -4 6 C-2.68 4.02 -1.36 2.04 0 0 Z " fill="#D4D1D0" transform="translate(90,10)"/>
<path d="M0 0 C0 0.66 0 1.32 0 2 C-1.65 2.33 -3.3 2.66 -5 3 C-5 3.66 -5 4.32 -5 5 C-4.01 5.66 -3.02 6.32 -2 7 C-2.75023438 7.25652344 -3.50046875 7.51304688 -4.2734375 7.77734375 C-14.49954901 11.60247614 -23.81854801 18.07941509 -29 28 C-30.16835776 30.95888979 -31.14556393 33.9365341 -32 37 C-32.33 37 -32.66 37 -33 37 C-33 35.02 -33 33.04 -33 31 C-35.33889989 31.88237303 -35.33889989 31.88237303 -36.0625 34.9375 C-36.371875 35.948125 -36.68125 36.95875 -37 38 C-37.495 38.99 -37.495 38.99 -38 40 C-50.54 40 -63.08 40 -76 40 C-76 38.02 -76 36.04 -76 34 C-75.67 34 -75.34 34 -75 34 C-75 35.65 -75 37.3 -75 39 C-63.12 39 -51.24 39 -39 39 C-38.67 36.69 -38.34 34.38 -38 32 C-33.57809845 20.04507331 -25.37718906 9.91022808 -14 4 C-4.7 0 -4.7 0 0 0 Z " fill="#FBDDDA" transform="translate(96,65)"/>
<path d="M0 0 C1.98 0 3.96 0 6 0 C5.91568648 9.85748959 5.82083833 19.71481577 5.71247292 29.57207203 C5.66248901 34.14900992 5.6161592 38.72592449 5.578125 43.30297852 C5.54129859 47.71861751 5.49494594 52.13406241 5.44193649 56.54953575 C5.42337845 58.23562916 5.40827571 59.9217642 5.39665604 61.60791969 C5.37981756 63.96643654 5.35078892 66.32450749 5.31884766 68.68286133 C5.31668747 69.38273163 5.31452728 70.08260193 5.31230164 70.80368042 C5.24953999 74.42202916 5.06709762 75.89935356 3 79 C2.34 79 1.68 79 1 79 C1.00222061 78.03977936 1.00444122 77.07955872 1.00672913 76.09024048 C1.02697278 67.05515275 1.04197806 58.0200696 1.05181217 48.98496437 C1.05703788 44.33957603 1.06412989 39.69420595 1.07543945 35.04882812 C1.08627939 30.56847325 1.0922792 26.08813598 1.09487724 21.60776901 C1.09672949 19.89569191 1.10034629 18.18361581 1.10573006 16.47154617 C1.11295514 14.07947941 1.11399032 11.68748602 1.11352539 9.29541016 C1.11712067 8.58259384 1.12071594 7.86977753 1.12442017 7.13536072 C1.16752276 3.44386231 1.16752276 3.44386231 0 0 Z " fill="#1E1A15" transform="translate(101,28)"/>
<path d="M0 0 C0.144375 0.78375 0.28875 1.5675 0.4375 2.375 C0.87798925 4.96421018 0.87798925 4.96421018 2 7 C3.64363134 7.72159424 5.31050386 8.39351421 7 9 C7 7.35 7 5.7 7 4 C7.66 4 8.32 4 9 4 C11.475 8.455 11.475 8.455 14 13 C13.34 13 12.68 13 12 13 C12 14.32 12 15.64 12 17 C11.34 17 10.68 17 10 17 C9.01 20.63 8.02 24.26 7 28 C9.31 26.35 11.62 24.7 14 23 C12.4972742 27.20763224 9.76667005 28.8027758 6 31 C5.34 31 4.68 31 4 31 C4.66 27.37 5.32 23.74 6 20 C4.576875 21.2375 4.576875 21.2375 3.125 22.5 C0.25 25 0.25 25 -2 25 C-3.38232443 23.37373596 -4.71937515 21.7074998 -6 20 C-5.34 19.21625 -4.68 18.4325 -4 17.625 C-1.79798559 15.28487188 -1.79798559 15.28487188 -2 13 C-3.98 13.33 -5.96 13.66 -8 14 C-7.32902328 9.80639551 -5.1441606 6.59665648 -3 3 C-3.928125 3.515625 -4.85625 4.03125 -5.8125 4.5625 C-9 6 -9 6 -12 5 C-10.37750059 4.16180842 -8.75191503 3.3295884 -7.125 2.5 C-6.22007813 2.0359375 -5.31515625 1.571875 -4.3828125 1.09375 C-2 0 -2 0 0 0 Z " fill="#F2F3F4" transform="translate(22,149)"/>
<path d="M0 0 C1.43931117 0.45261358 2.87638999 0.91232979 4.3125 1.375 C5.11300781 1.63023438 5.91351563 1.88546875 6.73828125 2.1484375 C9 3 9 3 12 5 C11.67 5.99 11.34 6.98 11 8 C11.59793673 10.35188447 12.25881795 12.68925595 13 15 C13.33 15 13.66 15 14 15 C13.51679152 21.2054142 12.66681876 26.99945246 11 33 C9 31 9 31 8.875 28.375 C8.91625 27.59125 8.9575 26.8075 9 26 C8.34 26 7.68 26 7 26 C7 26.66 7 27.32 7 28 C3.29496359 27.39665691 1.14031852 25.77525763 -1.75 23.4375 C-2.94882813 22.47650391 -2.94882813 22.47650391 -4.171875 21.49609375 C-4.77515625 21.00238281 -5.3784375 20.50867188 -6 20 C-5.67 19.34 -5.34 18.68 -5 18 C-2.05859375 17.3671875 -2.05859375 17.3671875 1.5625 16.875 C2.76003906 16.70742187 3.95757812 16.53984375 5.19140625 16.3671875 C6.11824219 16.24601562 7.04507812 16.12484375 8 16 C8 15.34 8 14.68 8 14 C7.37351562 13.79503906 6.74703125 13.59007813 6.1015625 13.37890625 C5.28429688 13.10949219 4.46703125 12.84007813 3.625 12.5625 C2.81289062 12.29566406 2.00078125 12.02882813 1.1640625 11.75390625 C-1 11 -1 11 -3 10 C-3 9.34 -3 8.68 -3 8 C0.63 7.01 4.26 6.02 8 5 C5.36 4.01 2.72 3.02 0 2 C0 1.34 0 0.68 0 0 Z " fill="#F5F4F3" transform="translate(9,71)"/>
<path d="M0 0 C4.33333333 0 8.66666667 0 13 0 C13.33 1.65 13.66 3.3 14 5 C15.32 3.35 16.64 1.7 18 0 C18.99 0.33 19.98 0.66 21 1 C20.484375 1.53625 19.96875 2.0725 19.4375 2.625 C17.72124751 4.94908649 17.72124751 4.94908649 18.1875 7.875 C18.9934528 10.97481847 19.92287233 13.98404254 21 17 C20.01 17 19.02 17 18 17 C17.01 15.02 16.02 13.04 15 11 C14.67 11 14.34 11 14 11 C13.67 12.98 13.34 14.96 13 17 C8.71 17 4.42 17 0 17 C0 11.39 0 5.78 0 0 Z " fill="#EAE9E7" transform="translate(197,115)"/>
<path d="M0 0 C0.66 0 1.32 0 2 0 C3.38232443 1.62626404 4.71937515 3.2925002 6 5 C8.95409701 3.62845496 11.44008376 2.01136276 14 0 C12.62845496 2.95409701 11.01136276 5.44008376 9 8 C11.31 8 13.62 8 16 8 C17 11 17 11 17 14 C17.99 15.485 17.99 15.485 19 17 C19.5015316 20.25995538 19.29854288 21.55815654 17.4375 24.3125 C14.08673477 26.63226055 11.98782145 26.58004676 8 26 C6 24.4375 6 24.4375 5 22 C5.22899643 18.67955183 5.5050985 15.989803 7 13 C6.030625 12.690625 5.06125 12.38125 4.0625 12.0625 C1 11 1 11 0 10 C-0.07205511 8.31391034 -0.08386068 6.62499341 -0.0625 4.9375 C-0.05347656 4.01839844 -0.04445312 3.09929687 -0.03515625 2.15234375 C-0.02355469 1.44207031 -0.01195312 0.73179688 0 0 Z " fill="#898989" transform="translate(0,122)"/>
<path d="M0 0 C3.43595166 1.52708963 6.11912454 3.59927045 9 6 C9.33 5.34 9.66 4.68 10 4 C11.65 4.99 13.3 5.98 15 7 C14.01 7.495 14.01 7.495 13 8 C13.33 8.99 13.66 9.98 14 11 C14.66 10.67 15.32 10.34 16 10 C16 10.99 16 11.98 16 13 C16.66 13 17.32 13 18 13 C18.33 14.32 18.66 15.64 19 17 C17.576875 17.8971875 17.576875 17.8971875 16.125 18.8125 C12.86035803 20.81562526 12.86035803 20.81562526 11 24 C9.8553125 23.5359375 9.8553125 23.5359375 8.6875 23.0625 C6.81210323 22.32106407 4.91315348 21.63771783 3 21 C2.67 19.02 2.34 17.04 2 15 C0.68 15.33 -0.64 15.66 -2 16 C-3.98 13.69 -5.96 11.38 -8 9 C-4 11 -4 11 -1 13 C-1 9.23312136 -1.23537317 8.08809695 -3 5 C-1.02 6.32 0.96 7.64 3 9 C3.66 8.01 4.32 7.02 5 6 C4.175 5.38125 3.35 4.7625 2.5 4.125 C1.675 3.42375 0.85 2.7225 0 2 C0 1.34 0 0.68 0 0 Z M14 5 C17 6 17 6 17 6 Z " fill="#B7B7B7" transform="translate(38,175)"/>
<path d="M0 0 C13.2 0 26.4 0 40 0 C40 0.33 40 0.66 40 1 C27.13 1 14.26 1 1 1 C1 3.64 1 6.28 1 9 C0.34 9.66 -0.32 10.32 -1 11 C-0.67 11.99 -0.34 12.98 0 14 C1.37562854 12.71034824 2.70766393 11.37310707 4 10 C4 9.34 4 8.68 4 8 C4.88751953 8.10828125 4.88751953 8.10828125 5.79296875 8.21875 C9.88261722 8.69910023 13.8738531 9.13310151 18 9 C17.67 9.66 17.34 10.32 17 11 C13.9375 11.625 13.9375 11.625 11 12 C11.515625 12.598125 12.03125 13.19625 12.5625 13.8125 C13.036875 14.534375 13.51125 15.25625 14 16 C13.67 16.99 13.34 17.98 13 19 C12.34 17.35 11.68 15.7 11 14 C10.01 14 9.02 14 8 14 C7.23043864 16.34533951 7.23043864 16.34533951 7 19 C8.39588754 20.64594139 8.39588754 20.64594139 10 22 C10 22.99 10 23.98 10 25 C3.07 24.505 3.07 24.505 -4 24 C-3.01 23.01 -2.02 22.02 -1 21 C-4.05580974 18.41222792 -4.05580974 18.41222792 -8 18 C-7.67386719 17.28714844 -7.34773437 16.57429688 -7.01171875 15.83984375 C-6.57472656 14.88207031 -6.13773438 13.92429688 -5.6875 12.9375 C-5.25824219 11.99777344 -4.82898438 11.05804688 -4.38671875 10.08984375 C-2.8850908 6.74396287 -1.4446587 3.3708703 0 0 Z " fill="#F1F0E1" transform="translate(182,141)"/>
<path d="M0 0 C12.21 0 24.42 0 37 0 C37 0.33 37 0.66 37 1 C25.12 1 13.24 1 1 1 C3.19158844 13.80986565 3.19158844 13.80986565 7.1875 25.6875 C8.93747895 29.85352553 10.39662649 33.39031884 10 38 C9.01 38.495 9.01 38.495 8 39 C8 38.34 8 37.68 8 37 C6.02 36.67 4.04 36.34 2 36 C2 33.69 2 31.38 2 29 C1.01 29.33 0.02 29.66 -1 30 C-1.66 29.34 -2.32 28.68 -3 28 C-2.87109375 26.046875 -2.87109375 26.046875 -2.4375 23.75 C-1.80623149 19.30959991 -2.53658436 16.84292841 -5 13 C-3.48632812 10.99804688 -3.48632812 10.99804688 -1.97265625 8.99609375 C-0.53609895 6.30692964 -0.53609895 6.30692964 0 0 Z " fill="#F2F1F6" transform="translate(20,120)"/>
<path d="M0 0 C0 10.89 0 21.78 0 33 C-10.89 33 -21.78 33 -33 33 C-30.21254299 21.85017196 -26.09518677 14.24623999 -17 7 C-5.18658281 0 -5.18658281 0 0 0 Z M-6.9375 4.875 C-7.618125 5.57625 -8.29875 6.2775 -9 7 C-12.25972007 8.58806875 -15.43468591 9.3888033 -19 10 C-18.87625 11.2375 -18.87625 11.2375 -18.75 12.5 C-19.03477217 16.48681042 -20.20712057 18.82942435 -22.125 22.265625 C-23.15014268 23.97383814 -23.15014268 23.97383814 -23 26 C-23.66 26 -24.32 26 -25 26 C-25.33 26.66 -25.66 27.32 -26 28 C-27.32 28 -28.64 28 -30 28 C-30 29.32 -30 30.64 -30 32 C-20.43 32 -10.86 32 -1 32 C-1 22.43 -1 12.86 -1 3 C-4.97029971 2.53638571 -4.97029971 2.53638571 -6.9375 4.875 Z " fill="#D42926" transform="translate(96,71)"/>
<path d="M0 0 C0.99 0 1.98 0 3 0 C3 19.47 3 38.94 3 59 C1.68 59 0.36 59 -1 59 C-1.02312851 51.45501767 -1.04091769 43.91003899 -1.05181217 36.36502934 C-1.05703989 32.86191115 -1.0641355 29.35881715 -1.07543945 25.85571289 C-1.08834206 21.83219159 -1.09322912 17.80869586 -1.09765625 13.78515625 C-1.10539818 11.88987938 -1.10539818 11.88987938 -1.11329651 9.95631409 C-1.11337204 8.795186 -1.11344757 7.63405792 -1.11352539 6.43774414 C-1.11685631 4.8955294 -1.11685631 4.8955294 -1.12025452 3.32215881 C-1 1 -1 1 0 0 Z " fill="#1A1915" transform="translate(103,136)"/>
<path d="M0 0 C0.6875 1.75 0.6875 1.75 1 4 C-0.7573799 7.07541482 -1.57945994 7.85981998 -5 9 C-5 11.62113708 -4.68707555 13.50935112 -4 16 C-3.34 16 -2.68 16 -2 16 C-2 16.66 -2 17.32 -2 18 C-4.31 18.66 -6.62 19.32 -9 20 C-9 20.66 -9 21.32 -9 22 C-8.37351563 21.90460938 -7.74703125 21.80921875 -7.1015625 21.7109375 C-6.28429687 21.60007813 -5.46703125 21.48921875 -4.625 21.375 C-3.40683594 21.20097656 -3.40683594 21.20097656 -2.1640625 21.0234375 C-1.44992188 21.01570313 -0.73578125 21.00796875 0 21 C0.66 21.66 1.32 22.32 2 23 C1.8125 25 1.8125 25 1 27 C-2 29 -2 29 -4.1875 28.625 C-5.0846875 28.315625 -5.0846875 28.315625 -6 28 C-6 27.67 -6 27.34 -6 27 C-4.35 26.67 -2.7 26.34 -1 26 C-0.67 25.01 -0.34 24.02 0 23 C-0.68707031 23.10699219 -1.37414062 23.21398437 -2.08203125 23.32421875 C-2.98308594 23.44410156 -3.88414062 23.56398437 -4.8125 23.6875 C-5.70582031 23.81511719 -6.59914062 23.94273437 -7.51953125 24.07421875 C-10 24 -10 24 -11.69921875 22.51953125 C-12.34310547 21.76736328 -12.34310547 21.76736328 -13 21 C-13.66 21 -14.32 21 -15 21 C-14.67 22.65 -14.34 24.3 -14 26 C-15.65 26.66 -17.3 27.32 -19 28 C-19.66 27.34 -20.32 26.68 -21 26 C-20.625 22.875 -20.625 22.875 -20 20 C-20.66 20 -21.32 20 -22 20 C-21.505 18.515 -21.505 18.515 -21 17 C-18.9375 16.3125 -18.9375 16.3125 -17 16 C-17 15.34 -17 14.68 -17 14 C-15.9275 13.38125 -14.855 12.7625 -13.75 12.125 C-13.11191406 11.75632813 -12.47382813 11.38765625 -11.81640625 11.0078125 C-10 10 -10 10 -7.6875 9 C-5.47738763 7.69030378 -5.08298065 6.30133389 -4 4 C-2.70529025 2.62913085 -1.37849103 1.28659163 0 0 Z " fill="#F2F3F1" transform="translate(166,168)"/>
<path d="M0 0 C0.721875 0.20625 1.44375 0.4125 2.1875 0.625 C2.5175 1.285 2.8475 1.945 3.1875 2.625 C2.1975 4.11 2.1975 4.11 1.1875 5.625 C0.79736284 7.6146995 0.45547351 9.61519869 0.1875 11.625 C-0.4725 11.625 -1.1325 11.625 -1.8125 11.625 C-2.4725 8.325 -3.1325 5.025 -3.8125 1.625 C-5.4625 1.955 -7.1125 2.285 -8.8125 2.625 C-8.8125 5.925 -8.8125 9.225 -8.8125 12.625 C-9.4725 12.625 -10.1325 12.625 -10.8125 12.625 C-10.8125 11.965 -10.8125 11.305 -10.8125 10.625 C-11.4725 10.625 -12.1325 10.625 -12.8125 10.625 C-13.1425 11.285 -13.4725 11.945 -13.8125 12.625 C-15.87890625 13.0390625 -15.87890625 13.0390625 -18.375 13.25 C-19.61443359 13.36214844 -19.61443359 13.36214844 -20.87890625 13.4765625 C-21.83603516 13.55003906 -21.83603516 13.55003906 -22.8125 13.625 C-25.13139401 5.4406682 -25.13139401 5.4406682 -23.8125 1.625 C-22.8125 0.625 -22.8125 0.625 -19.4375 0.4375 C-15.8125 0.625 -15.8125 0.625 -12.8125 2.625 C-12.008125 1.8825 -12.008125 1.8825 -11.1875 1.125 C-7.46126244 -1.2284132 -4.23301809 -0.56440241 0 0 Z " fill="#ECECEC" transform="translate(123.8125,202.375)"/>
<path d="M0 0 C0.66 0 1.32 0 2 0 C2 1.32 2 2.64 2 4 C5.96 4.33 9.92 4.66 14 5 C14.33 6.65 14.66 8.3 15 10 C14.01 11.485 14.01 11.485 13 13 C11.68 13 10.36 13 9 13 C9 15.31 9 17.62 9 20 C10.32 20.33 11.64 20.66 13 21 C9.05801608 22.31399464 7.57117859 21.1546478 3.9375 19.49609375 C3.298125 19.33238281 2.65875 19.16867188 2 19 C1.01 19.66 0.02 20.32 -1 21 C-1.12109311 13.92278069 -0.85373239 7.02804699 0 0 Z " fill="#F1F1F1" transform="translate(1,98)"/>
<path d="M0 0 C3.71888239 0.50712033 6.73454239 1.11608215 10 3 C6.79937313 4.60031344 4.27728194 3.03173691 1 2 C1 2.99 1 3.98 1 5 C2.94009522 6.70532323 2.94009522 6.70532323 5 8 C2.03 7.505 2.03 7.505 -1 7 C-1 8.32 -1 9.64 -1 11 C1.29629994 12.14814997 3.07698086 12.30769809 5.625 12.5625 C6.44226563 12.64628906 7.25953125 12.73007812 8.1015625 12.81640625 C8.72804687 12.87699219 9.35453125 12.93757813 10 13 C10.28875 12.21625 10.5775 11.4325 10.875 10.625 C12 8 12 8 14 6 C13.49396008 8.16874252 13.00016187 9.99967627 12 12 C15.3 11.34 18.6 10.68 22 10 C22 10.66 22 11.32 22 12 C19.69 12.33 17.38 12.66 15 13 C15 15.97 15 18.94 15 22 C14.34 21.67 13.68 21.34 13 21 C13 18.69 13 16.38 13 14 C9.88214887 14.64644661 9.88214887 14.64644661 9 17 C8.071875 16.79375 7.14375 16.5875 6.1875 16.375 C2.84826598 15.63307034 2.84826598 15.63307034 0 18 C1.32 18 2.64 18 4 18 C4.66 19.65 5.32 21.3 6 23 C1.4926501 21.23625439 -2.88642794 19.24333095 -7.28125 17.21875 C-9.83076383 16.07586449 -12.39846893 15.01799042 -15 14 C-15 13.67 -15 13.34 -15 13 C-13.00045254 12.95745644 -10.99958364 12.95919217 -9 13 C-8.67 13.33 -8.34 13.66 -8 14 C-7.54625 13.34 -7.0925 12.68 -6.625 12 C-6.08875 11.34 -5.5525 10.68 -5 10 C-4.34 10 -3.68 10 -3 10 C-2.87625 9.278125 -2.7525 8.55625 -2.625 7.8125 C-2.0095069 5.04278106 -1.11555626 2.6029646 0 0 Z " fill="#A3A9AA" transform="translate(143,18)"/>
<path d="M0 0 C11.91611424 3.57483427 21.79123092 8.65045949 28.57421875 19.5234375 C31.04544535 24.23930258 32.10007662 27.60045971 33 33 C22.11 33 11.22 33 0 33 C0 22.11 0 11.22 0 0 Z M1 5 C1 13.91 1 22.82 1 32 C9.91 32 18.82 32 28 32 C27.75579124 21.90425024 27.75579124 21.90425024 25 17 C24.34 16.67 23.68 16.34 23 16 C20.46268636 14.73134318 20.21353154 13.50290879 19 11 C15.87525908 8.16593265 12.94772289 7.25813222 8.875 6.3125 C7.82054688 6.06113281 6.76609375 5.80976562 5.6796875 5.55078125 C3.12944315 4.9328898 3.12944315 4.9328898 1 5 Z " fill="#2F87B3" transform="translate(112,71)"/>
<path d="M0 0 C2.721587 1.6892609 2.98338521 2.93737503 3.8125 6.0625 C3.874375 7.031875 3.93625 8.00125 4 9 C3.34 9.66 2.68 10.32 2 11 C2.33 11.66 2.66 12.32 3 13 C2.67 13.66 2.34 14.32 2 15 C2.99 15 3.98 15 5 15 C5 15.66 5 16.32 5 17 C-1.435 17.495 -1.435 17.495 -8 18 C-8 17.34 -8 16.68 -8 16 C-7.01 16 -6.02 16 -5 16 C-5 15.34 -5 14.68 -5 14 C-5.825 13.236875 -6.65 12.47375 -7.5 11.6875 C-10 9 -10 9 -10.5625 6.4375 C-9.22881116 0.65818171 -5.58154116 -0.83129336 0 0 Z " fill="#C2C2C2" transform="translate(201,83)"/>
<path d="M0 0 C7.59 0 15.18 0 23 0 C21.68 1.65 20.36 3.3 19 5 C18.34 5 17.68 5 17 5 C17 5.66 17 6.32 17 7 C14.89915791 8.00696568 12.79420511 9.0053589 10.6875 10 C9.51574219 10.556875 8.34398438 11.11375 7.13671875 11.6875 C4 13 4 13 1 13 C0.67 8.71 0.34 4.42 0 0 Z " fill="#F5EC22" transform="translate(111,141)"/>
<path d="M0 0 C2.59814888 2.25172903 2.95716454 3.65017705 3.375 7.0625 C2.94605826 10.42254363 2.58222169 10.96110912 0 13 C-2.48046875 13.94921875 -2.48046875 13.94921875 -5.1875 14.6875 C-6.53908203 15.06455078 -6.53908203 15.06455078 -7.91796875 15.44921875 C-8.60503906 15.63097656 -9.29210938 15.81273437 -10 16 C-10.84114171 14.56705502 -11.67265687 13.12845595 -12.5 11.6875 C-12.9640625 10.88699219 -13.428125 10.08648437 -13.90625 9.26171875 C-15 7 -15 7 -15 4 C-14.34 4 -13.68 4 -13 4 C-12.67 5.65 -12.34 7.3 -12 9 C-11.73445313 8.43410156 -11.46890625 7.86820313 -11.1953125 7.28515625 C-10.66550781 6.18494141 -10.66550781 6.18494141 -10.125 5.0625 C-9.77695312 4.33160156 -9.42890625 3.60070312 -9.0703125 2.84765625 C-6.96071383 -0.79409619 -3.86697687 -0.39458948 0 0 Z " fill="#6F6F6F" transform="translate(72,16)"/>
<path d="M0 0 C0.33 0 0.66 0 1 0 C1.20086443 3.71599191 1.1519437 4.77208445 -1 8 C-1.309375 9.134375 -1.61875 10.26875 -1.9375 11.4375 C-3 15 -3 15 -4.5625 16.9375 C-6.33985855 19.48762313 -6.486982 21.74451849 -6.69140625 24.8046875 C-7 27 -7 27 -9 33 C2.22 33 13.44 33 25 33 C25 30.69 25 28.38 25 26 C25.66 26 26.32 26 27 26 C27.16873478 24.56274129 27.33490737 23.12518162 27.5 21.6875 C27.63921875 20.48673828 27.63921875 20.48673828 27.78125 19.26171875 C28.04813463 16.88103445 28.04813463 16.88103445 28 14 C28 12.68 28 11.36 28 10 C28.99 10 29.98 10 31 10 C31 10.99 31 11.98 31 13 C32.32 13.33 33.64 13.66 35 14 C34.60167969 14.60585937 34.20335937 15.21171875 33.79296875 15.8359375 C33.26316406 16.67382812 32.73335937 17.51171875 32.1875 18.375 C31.40439453 19.59316406 31.40439453 19.59316406 30.60546875 20.8359375 C28.38256555 24.98531789 28.38256555 24.98531789 26 34 C14.12 34 2.24 34 -10 34 C-10 21.26491673 -6.08154494 11.0684118 0 0 Z " fill="#B8292D" transform="translate(31,70)"/>
<path d="M0 0 C-0.66 1.32 -1.32 2.64 -2 4 C-2.66 4 -3.32 4 -4 4 C-4.33 4.99 -4.66 5.98 -5 7 C-5.66 7 -6.32 7 -7 7 C-7.28617188 7.87591797 -7.28617188 7.87591797 -7.578125 8.76953125 C-9.60324258 11.94629537 -12.44884733 13.1221807 -15.75 14.6875 C-16.3584375 14.99494141 -16.966875 15.30238281 -17.59375 15.61914062 C-21.37799801 17.46679163 -24.82131229 18.51932273 -29 19 C-28 17 -28 17 -25.93359375 16.1484375 C-25.10988281 15.89320313 -24.28617187 15.63796875 -23.4375 15.375 C-22.61121094 15.11460937 -21.78492187 14.85421875 -20.93359375 14.5859375 C-20.29550781 14.39257812 -19.65742187 14.19921875 -19 14 C-19 13.34 -19 12.68 -19 12 C-20.65 12 -22.3 12 -24 12 C-16.5 7 -16.5 7 -13 7 C-13 6.34 -13 5.68 -13 5 C-8.68287748 0.57758181 -6.39300192 -0.63930019 0 0 Z " fill="#FAF8DF" transform="translate(141,141)"/>
<path d="M0 0 C1.875 1.125 1.875 1.125 3 3 C3.38601984 6.08815875 3.47901666 8.10184376 2 10.875 C-1.37806895 12.77516379 -4.16618269 12.36512546 -8 12 C-10 9 -10 9 -9.8125 5.4375 C-8.46874872 -0.24760157 -5.31129528 -0.55325992 0 0 Z " fill="#F3F3F3" transform="translate(196,68)"/>
<path d="M0 0 C0.66 0 1.32 0 2 0 C8.08154494 11.0684118 12 21.26491673 12 34 C0.12 34 -11.76 34 -24 34 C-24.66 31.36 -25.32 28.72 -26 26 C-25.01 26.33 -24.02 26.66 -23 27 C-23 28.98 -23 30.96 -23 33 C-12.77 33 -2.54 33 8 33 C8.10281443 22.99314446 8.10281443 22.99314446 5.6875 14.125 C5.25824219 12.89007813 4.82898438 11.65515625 4.38671875 10.3828125 C3.14839655 7.36200398 1.69603832 4.77533543 0 2 C0 1.34 0 0.68 0 0 Z " fill="#3D90B7" transform="translate(175,70)"/>
<path d="M0 0 C2.375 2.125 2.375 2.125 4 5 C4.0625 8.125 4.0625 8.125 3 11 C0.59196729 12.85233285 -0.92741925 14 -4 14 C-5.5078125 11.8125 -5.5078125 11.8125 -7.125 9 C-7.66382813 8.071875 -8.20265625 7.14375 -8.7578125 6.1875 C-9.16773438 5.465625 -9.57765625 4.74375 -10 4 C-6.81754559 0.67288857 -4.73098166 -0.67585452 0 0 Z " fill="#A09F9F" transform="translate(54,25)"/>
<path d="M0 0 C0.144375 0.78375 0.28875 1.5675 0.4375 2.375 C0.87798925 4.96421018 0.87798925 4.96421018 2 7 C2.66 7 3.32 7 4 7 C3.67 8.32 3.34 9.64 3 11 C3.99 11.33 4.98 11.66 6 12 C6 12.66 6 13.32 6 14 C4.54735962 14.8638129 3.0876837 15.71580454 1.625 16.5625 C0.81289063 17.03816406 0.00078125 17.51382813 -0.8359375 18.00390625 C-1.55007812 18.33261719 -2.26421875 18.66132813 -3 19 C-3.66 18.67 -4.32 18.34 -5 18 C-4.2575 17.319375 -4.2575 17.319375 -3.5 16.625 C-1.77390663 15.12364481 -1.77390663 15.12364481 -2 13 C-3.98 13.33 -5.96 13.66 -8 14 C-7.32902328 9.80639551 -5.1441606 6.59665648 -3 3 C-3.928125 3.515625 -4.85625 4.03125 -5.8125 4.5625 C-9 6 -9 6 -12 5 C-10.37750059 4.16180842 -8.75191503 3.3295884 -7.125 2.5 C-6.22007813 2.0359375 -5.31515625 1.571875 -4.3828125 1.09375 C-2 0 -2 0 0 0 Z " fill="#AFAEAE" transform="translate(22,149)"/>
<path d="M0 0 C12.21 0 24.42 0 37 0 C37 0.33 37 0.66 37 1 C25.12 1 13.24 1 1 1 C1.99 6.28 2.98 11.56 4 17 C3.67 18.65 3.34 20.3 3 22 C2.34 22.33 1.68 22.66 1 23 C-0.98 20.03 -2.96 17.06 -5 14 C-2.125 8.125 -2.125 8.125 -1 7 C-0.67 4.69 -0.34 2.38 0 0 Z " fill="#D1D1E0" transform="translate(20,120)"/>
<path d="M0 0 C0 11.88 0 23.76 0 36 C-0.33 36 -0.66 36 -1 36 C-1 24.45 -1 12.9 -1 1 C-2.98 1.99 -2.98 1.99 -5 3 C-6.98860287 3.41339163 -8.99098821 3.7636595 -11 4.0625 C-14.38555913 4.57456582 -17.69394546 5.10196115 -21 6 C-21 6.66 -21 7.32 -21 8 C-24.3 8.66 -27.6 9.32 -31 10 C-31 10.66 -31 11.32 -31 12 C-31.928125 12.12375 -31.928125 12.12375 -32.875 12.25 C-35.18437567 12.81258459 -35.18437567 12.81258459 -36.25 15.0625 C-36.4975 15.701875 -36.745 16.34125 -37 17 C-38.65 16.67 -40.3 16.34 -42 16 C-30.77122587 6.36304443 -14.77650776 0 0 0 Z " fill="#BF3A3B" transform="translate(96,29)"/>
<path d="M0 0 C0.99 0.33 1.98 0.66 3 1 C3 1.66 3 2.32 3 3 C3.886875 2.690625 4.77375 2.38125 5.6875 2.0625 C10.60965385 0.48369593 13.92808297 -0.30420724 19 1 C16.01375511 3.25873743 12.99211132 5.45958926 9.9375 7.625 C9.08027344 8.23601563 8.22304688 8.84703125 7.33984375 9.4765625 C5 11 5 11 2 12 C2 11.34 2 10.68 2 10 C0.68 10 -0.64 10 -2 10 C-1.67 9.01 -1.34 8.02 -1 7 C-0.34 7 0.32 7 1 7 C0.4740625 5.824375 0.4740625 5.824375 -0.0625 4.625 C-0.371875 3.75875 -0.68125 2.8925 -1 2 C-0.67 1.34 -0.34 0.68 0 0 Z " fill="#F7F0EF" transform="translate(47,36)"/>
<path d="M0 0 C0.99 0 1.98 0 3 0 C3.66 3.63 4.32 7.26 5 11 C5.99 11.33 6.98 11.66 8 12 C8.33 12.99 8.66 13.98 9 15 C6 16 6 16 2.625 14.375 C-0.72911876 12.33274587 -3.33502229 9.89340437 -6 7 C-7.84188612 4.94729537 -7.84188612 4.94729537 -10 4 C-9 2 -9 2 -6 1 C-3.3125 1.9375 -3.3125 1.9375 -1 3 C-0.67 2.01 -0.34 1.02 0 0 Z " fill="#F5F8F7" transform="translate(153,32)"/>
<path d="M0 0 C8.57142857 1 8.57142857 1 12 2 C12.33 1.34 12.66 0.68 13 0 C14.5 1.375 14.5 1.375 16 3 C16 5 16 5 14.5 6.625 C14.005 7.07875 13.51 7.5325 13 8 C14.32 8 15.64 8 17 8 C16.6875 9.9375 16.6875 9.9375 16 12 C13 13 13 13 10.25 12.125 C5.79041381 9.20911672 2.95827631 5.39365298 0 1 C0 0.67 0 0.34 0 0 Z " fill="#C1BFBE" transform="translate(32,38)"/>
<path d="M0 0 C0.88751953 0.10828125 0.88751953 0.10828125 1.79296875 0.21875 C5.88261722 0.69910023 9.8738531 1.13310151 14 1 C13.67 1.66 13.34 2.32 13 3 C9.9375 3.625 9.9375 3.625 7 4 C7.515625 4.598125 8.03125 5.19625 8.5625 5.8125 C9.036875 6.534375 9.51125 7.25625 10 8 C9.67 8.99 9.34 9.98 9 11 C8.34 9.35 7.68 7.7 7 6 C6.01 6 5.02 6 4 6 C3.23043864 8.34533951 3.23043864 8.34533951 3 11 C4.39588754 12.64594139 4.39588754 12.64594139 6 14 C6 14.99 6 15.98 6 17 C-0.93 16.505 -0.93 16.505 -8 16 C-8 15.67 -8 15.34 -8 15 C-6.02 15 -4.04 15 -2 15 C-1.37542727 11.56484998 -1 8.50935186 -1 5 C-0.69595322 3.32774271 -0.36871088 1.65919896 0 0 Z " fill="#8B8A89" transform="translate(186,149)"/>
<path d="M0 0 C0 0.66 0 1.32 0 2 C-1.2065625 2.61875 -1.2065625 2.61875 -2.4375 3.25 C-5.28529578 4.79724236 -5.28529578 4.79724236 -5.875 8 C-6.1801923 11.05183614 -6.1801923 11.05183614 -5 14 C-7.64 14.66 -10.28 15.32 -13 16 C-14.00806851 14.40089132 -15.00620385 12.79551738 -16 11.1875 C-16.556875 10.29417969 -17.11375 9.40085937 -17.6875 8.48046875 C-19 6 -19 6 -19 3 C-18.525625 3.556875 -18.05125 4.11375 -17.5625 4.6875 C-14.43870236 6.28749391 -13.74727106 5.91819252 -10.5 4.875 C-7.01769208 3.55412458 -3.50436995 0 0 0 Z " fill="#E5FAFC" transform="translate(190,56)"/>
<path d="M0 0 C13.53 0 27.06 0 41 0 C39.875 5.625 39.875 5.625 37 8 C37 6.35 37 4.7 37 3 C32.10704853 2.92566221 27.21442817 2.87130973 22.32104492 2.83520508 C20.65757519 2.82014886 18.99414495 2.79969937 17.33081055 2.77368164 C14.93528478 2.73715793 12.54028533 2.72024218 10.14453125 2.70703125 C9.4047554 2.69154739 8.66497955 2.67606354 7.90278625 2.66011047 C3.40435377 2.65865504 0.62306443 3.30369368 -3 6 C-3.33 5.34 -3.66 4.68 -4 4 C-3.34 4 -2.68 4 -2 4 C-1.34 2.68 -0.68 1.36 0 0 Z " fill="#DDD651" transform="translate(141,141)"/>
<path d="M0 0 C2.31 0 4.62 0 7 0 C9 3 9 3 8.6875 6.625 C8 10 8 10 7 11 C5.33382885 11.04063832 3.66611905 11.042721 2 11 C2 12.98 2 14.96 2 17 C1.34 17 0.68 17 0 17 C0 11.39 0 5.78 0 0 Z " fill="#393837" transform="translate(153,115)"/>
<path d="M0 0 C1.32 0.33 2.64 0.66 4 1 C3.01 1 2.02 1 1 1 C1 12.22 1 23.44 1 35 C3.97 35.66 6.94 36.32 10 37 C11.32 37.33 12.64 37.66 14 38 C14 38.66 14 39.32 14 40 C18.95 41.485 18.95 41.485 24 43 C24 43.99 24 44.98 24 46 C25.65 46.33 27.3 46.66 29 47 C29.33 48.98 29.66 50.96 30 53 C29.52691406 52.63648438 29.05382812 52.27296875 28.56640625 51.8984375 C26.39205146 50.24541924 24.19916536 48.61985503 22 47 C21.31421875 46.48566406 20.6284375 45.97132812 19.921875 45.44140625 C13.34695517 40.75373193 8.08227505 39.10856733 0 36 C0 24.12 0 12.24 0 0 Z " fill="#3C8BB9" transform="translate(112,29)"/>
<path d="M0 0 C0.66 0.33 1.32 0.66 2 1 C1.67 2.32 1.34 3.64 1 5 C1.66 5 2.32 5 3 5 C1.7175023 7.86095641 0.54656011 10.11365918 -2 12 C-4.6875 12.1875 -4.6875 12.1875 -7 12 C-7.33 11.34 -7.66 10.68 -8 10 C-9.98 10 -11.96 10 -14 10 C-14 10.66 -14 11.32 -14 12 C-15.98 12.33 -17.96 12.66 -20 13 C-16.12203254 9.50982929 -11.99325408 7.41936549 -7.3046875 5.24609375 C-5.07557616 4.04086236 -3.71505041 2.83175503 -2 1 C-1.34 0.67 -0.68 0.34 0 0 Z " fill="#F5EC3C" transform="translate(138,146)"/>
<path d="M0 0 C0.66 0 1.32 0 2 0 C3.32 2.97 4.64 5.94 6 9 C6.33 6.03 6.66 3.06 7 0 C7.66 0 8.32 0 9 0 C9 5.61 9 11.22 9 17 C8.01 17 7.02 17 6 17 C5.01 14.69 4.02 12.38 3 10 C2.67 12.31 2.34 14.62 2 17 C1.34 17 0.68 17 0 17 C0 11.39 0 5.78 0 0 Z " fill="#191817" transform="translate(175,115)"/>
<path d="M0 0 C2.31 0 4.62 0 7 0 C8.89488952 1.89488952 8.18019112 4.57139146 8.23046875 7.08984375 C8 9 8 9 6 11 C4.68 11 3.36 11 2 11 C2 12.98 2 14.96 2 17 C1.34 17 0.68 17 0 17 C0 11.39 0 5.78 0 0 Z " fill="#181716" transform="translate(142,115)"/>
<path d="M0 0 C3.96 1.32 7.92 2.64 12 4 C12 7 12 7 10.6875 8.38671875 C9.125 9.59114583 7.5625 10.79557292 6 12 C3.37812506 10.95125002 2.20628639 10.35068687 0.75 7.875 C0.5025 7.25625 0.255 6.6375 0 6 C-0.66 6 -1.32 6 -2 6 C-1.49396008 3.83125748 -1.00016187 2.00032373 0 0 Z " fill="#F3F3F3" transform="translate(2,116)"/>
<path d="M0 0 C7.59 0 15.18 0 23 0 C21.68 1.65 20.36 3.3 19 5 C18.34 5 17.68 5 17 5 C17 5.66 17 6.32 17 7 C14.89915791 8.00696568 12.79420511 9.0053589 10.6875 10 C9.51574219 10.556875 8.34398438 11.11375 7.13671875 11.6875 C4 13 4 13 1 13 C0.67 8.71 0.34 4.42 0 0 Z M2 2 C2 4.64 2 7.28 2 10 C6.455 9.505 6.455 9.505 11 9 C11.33 8.01 11.66 7.02 12 6 C13.32 6 14.64 6 16 6 C16.33 4.68 16.66 3.36 17 2 C12.05 2 7.1 2 2 2 Z " fill="#D9D251" transform="translate(111,141)"/>
<path d="M0 0 C0.66 0 1.32 0 2 0 C3.38232443 1.62626404 4.71937515 3.2925002 6 5 C8.95409701 3.62845496 11.44008376 2.01136276 14 0 C12.62845496 2.95409701 11.01136276 5.44008376 9 8 C11.31 8 13.62 8 16 8 C16 8.66 16 9.32 16 10 C13.71059044 10.38854209 11.41835426 10.7604628 9.125 11.125 C7.21074219 11.43824219 7.21074219 11.43824219 5.2578125 11.7578125 C3.64519531 11.87769531 3.64519531 11.87769531 2 12 C0 10 0 10 -0.1953125 7.6171875 C-0.17210938 6.71226562 -0.14890625 5.80734375 -0.125 4.875 C-0.10695312 3.96492188 -0.08890625 3.05484375 -0.0703125 2.1171875 C-0.04710937 1.41851562 -0.02390625 0.71984375 0 0 Z " fill="#B0B0B0" transform="translate(0,122)"/>
<path d="M0 0 C0.66 0 1.32 0 2 0 C2.33 1.65 2.66 3.3 3 5 C4.32 3.35 5.64 1.7 7 0 C7.99 0.33 8.98 0.66 10 1 C9.484375 1.53625 8.96875 2.0725 8.4375 2.625 C6.72124751 4.94908649 6.72124751 4.94908649 7.1875 7.875 C7.9934528 10.97481847 8.92287233 13.98404254 10 17 C9.01 17 8.02 17 7 17 C6.01 15.02 5.02 13.04 4 11 C3.67 11 3.34 11 3 11 C2.67 12.98 2.34 14.96 2 17 C1.34 17 0.68 17 0 17 C0 11.39 0 5.78 0 0 Z " fill="#181715" transform="translate(208,115)"/>
<path d="M0 0 C0 10.89 0 21.78 0 33 C-0.33 33 -0.66 33 -1 33 C-1 23.1 -1 13.2 -1 3 C-6.98538237 4.31297122 -6.98538237 4.31297122 -9 8 C-11.62289433 9.21056661 -14.25938661 10.0864622 -17 11 C-17.66 10.34 -18.32 9.68 -19 9 C-6.41747573 0 -6.41747573 0 0 0 Z " fill="#C3393A" transform="translate(96,71)"/>
<path d="M0 0 C0 0.99 0 1.98 0 3 C0.33 3.99 0.66 4.98 1 6 C1.886875 5.484375 2.77375 4.96875 3.6875 4.4375 C7.20023331 2.9131063 8.44706507 2.85052105 12 4 C12.25 6.25 12.25 6.25 12 9 C10 11.3125 10 11.3125 8 13 C3.42521756 10.9785845 0.38168431 8.68006822 -3 5 C-1.125 1.125 -1.125 1.125 0 0 Z " fill="#9C9B9B" transform="translate(26,45)"/>
<path d="M0 0 C10.89 0 21.78 0 33 0 C33 10.89 33 21.78 33 33 C31.68 33 30.36 33 29 33 C28.67 32.01 28.34 31.02 28 30 C28.46019531 29.19304687 28.92039062 28.38609375 29.39453125 27.5546875 C31.69382665 22.46379014 31.56753135 17.64821699 31.6875 12.125 C31.790625 8.45375 31.89375 4.7825 32 1 C21.44 1 10.88 1 0 1 C0 0.67 0 0.34 0 0 Z " fill="#555282" transform="translate(63,120)"/>
<path d="M0 0 C11.78571429 3.53571429 11.78571429 3.53571429 15 6 C15 6.66 15 7.32 15 8 C13.041036 7.69147815 11.08284287 7.3780582 9.125 7.0625 C7.48917969 6.80146484 7.48917969 6.80146484 5.8203125 6.53515625 C3 6 3 6 1 5 C1 13.91 1 22.82 1 32 C0.67 32 0.34 32 0 32 C0 21.44 0 10.88 0 0 Z " fill="#338BC1" transform="translate(112,71)"/>
<path d="M0 0 C0.66 0.99 1.32 1.98 2 3 C2 2.34 2 1.68 2 1 C3.32 1 4.64 1 6 1 C7.39431504 3.78863007 7.25660094 5.92078868 7 9 C3.77626323 11.14915785 2.73296326 11.38286803 -1 11 C-3 9 -3 9 -3.3125 6.0625 C-3 3 -3 3 -1.5 1.125 C-1.005 0.75375 -0.51 0.3825 0 0 Z " fill="#ECECEC" transform="translate(10,136)"/>
<path d="M0 0 C2.64 0 5.28 0 8 0 C8 0.99 8 1.98 8 3 C6.02 3 4.04 3 2 3 C2 4.32 2 5.64 2 7 C3.98 7 5.96 7 8 7 C8 7.99 8 8.98 8 10 C6.02 10 4.04 10 2 10 C2 11.65 2 13.3 2 15 C3.98 15 5.96 15 8 15 C8 15.66 8 16.32 8 17 C5.36 17 2.72 17 0 17 C0 11.39 0 5.78 0 0 Z " fill="#060504" transform="translate(164,115)"/>
<path d="M0 0 C2.64 0 5.28 0 8 0 C8 0.99 8 1.98 8 3 C6.02 3 4.04 3 2 3 C2 4.32 2 5.64 2 7 C3.98 7 5.96 7 8 7 C8 7.99 8 8.98 8 10 C6.02 10 4.04 10 2 10 C2 11.65 2 13.3 2 15 C3.98 15 5.96 15 8 15 C8 15.66 8 16.32 8 17 C5.36 17 2.72 17 0 17 C0 11.39 0 5.78 0 0 Z " fill="#141312" transform="translate(197,115)"/>
<path d="M0 0 C0.33 0 0.66 0 1 0 C1.33 2.31 1.66 4.62 2 7 C2.99 7.33 3.98 7.66 5 8 C5.33 6.68 5.66 5.36 6 4 C8 6 10 8 12 10 C11.67 10.66 11.34 11.32 11 12 C11.99 12 12.98 12 14 12 C14 12.66 14 13.32 14 14 C7.565 14.495 7.565 14.495 1 15 C1 14.34 1 13.68 1 13 C1.99 13 2.98 13 4 13 C4 12.34 4 11.68 4 11 C3.175 10.236875 2.35 9.47375 1.5 8.6875 C-1 6 -1 6 -1.375 3.25 C-1 1 -1 1 0 0 Z " fill="#8A8A89" transform="translate(192,86)"/>
<path d="M0 0 C3.4375 0.1875 3.4375 0.1875 4.4375 1.1875 C4.6875 4.125 4.6875 4.125 4.4375 7.1875 C0.99642734 9.48154844 -0.53089809 9.45043056 -4.5625 9.1875 C-5.5625 8.1875 -5.5625 8.1875 -5.75 5.25 C-5.47081195 0.68992846 -4.5092641 0.23732969 0 0 Z " fill="#F2F2F1" transform="translate(179.5625,46.8125)"/>
<path d="M0 0 C3.36241563 0.45438049 6.04009971 1.35561095 9 3 C9.33 2.01 9.66 1.02 10 0 C10.33 0.66 10.66 1.32 11 2 C11.66 2.33 12.32 2.66 13 3 C11.576875 3.8971875 11.576875 3.8971875 10.125 4.8125 C6.86035803 6.81562526 6.86035803 6.81562526 5 10 C2.08482708 8.92598892 0.22189824 8.22189824 -2 6 C-1.44444444 1.44444444 -1.44444444 1.44444444 0 0 Z " fill="#494948" transform="translate(44,189)"/>
<path d="M0 0 C0.66 0 1.32 0 2 0 C2.33 4.62 2.66 9.24 3 14 C3.99 14 4.98 14 6 14 C6.33 9.38 6.66 4.76 7 0 C7.66 0 8.32 0 9 0 C9.05397335 2.4377963 9.09365616 4.87439685 9.125 7.3125 C9.15013672 8.34793945 9.15013672 8.34793945 9.17578125 9.40429688 C9.21217794 13.17135396 9.14378864 14.78431704 7 18 C4.5 18.375 4.5 18.375 2 18 C-0.45391569 14.31912647 -0.22802759 11.55644412 -0.125 7.3125 C-0.11597656 6.61060547 -0.10695312 5.90871094 -0.09765625 5.18554688 C-0.07413704 3.45688475 -0.03826713 1.72839855 0 0 Z " fill="#1E1D1A" transform="translate(130,115)"/>
<path d="M0 0 C1.65 0 3.3 0 5 0 C4.67 0.66 4.34 1.32 4 2 C3.01 2 2.02 2 1 2 C1 2.66 1 3.32 1 4 C-5.67118767 8.8876891 -11.71416334 11.86190272 -20 12 C-20 10.35 -20 8.7 -20 7 C-15.545 7.99 -15.545 7.99 -11 9 C-10.67 7.68 -10.34 6.36 -10 5 C-8.35 5 -6.7 5 -5 5 C-5.33 4.01 -5.66 3.02 -6 2 C-2.25 0.875 -2.25 0.875 0 2 C0 1.34 0 0.68 0 0 Z " fill="#F3EB47" transform="translate(148,180)"/>
<path d="M0 0 C3.875 0.875 3.875 0.875 5 2 C4.73715515 4.27496752 4.350499 6.51692087 3.9609375 8.7734375 C3.77053183 11.1003064 3.77053183 11.1003064 5.4765625 12.7890625 C5.97929687 13.18867187 6.48203125 13.58828125 7 14 C2.89041233 12.54955729 -0.43258745 10.48889248 -4 8 C-3.40072174 4.64404172 -2.15377564 2.62198774 0 0 Z " fill="#363637" transform="translate(19,54)"/>
<path d="M0 0 C1.134375 0.020625 2.26875 0.04125 3.4375 0.0625 C3.7675 1.3825 4.0975 2.7025 4.4375 4.0625 C3.7775 3.4025 3.1175 2.7425 2.4375 2.0625 C-0.14604218 1.89562552 -0.14604218 1.89562552 -2.5625 2.0625 C-2.5625 3.0525 -2.5625 4.0425 -2.5625 5.0625 C-0.5825 5.7225 1.3975 6.3825 3.4375 7.0625 C3.7675 8.7125 4.0975 10.3625 4.4375 12.0625 C1.72870665 13.41689668 -0.57183268 13.12751451 -3.5625 13.0625 C-5.88139401 4.8781682 -5.88139401 4.8781682 -4.5625 1.0625 C-3.5625 0.0625 -3.5625 0.0625 0 0 Z " fill="#7A7A7A" transform="translate(104.5625,202.9375)"/>
<path d="M0 0 C1.67045417 2.20196231 2.05538658 3.37228545 1.8125 6.125 C1 8 1 8 -2 10 C-2.99 10 -3.98 10 -5 10 C-5.99 6.7 -6.98 3.4 -8 0 C-4.66411172 -1.11196276 -3.29427581 -1.09809194 0 0 Z " fill="#F3F3F3" transform="translate(72,18)"/>
<path d="M0 0 C1 3 1 3 0.5 5.4375 C-0.01333512 8.06834251 0.16441342 9.49324027 1 12 C0.01 12 -0.98 12 -2 12 C-2.33 12.99 -2.66 13.98 -3 15 C6.57 15 16.14 15 26 15 C26 15.33 26 15.66 26 16 C15.44 16 4.88 16 -6 16 C-4.37462911 9.49851642 -3.0185639 5.63465261 0 0 Z " fill="#B62427" transform="translate(69,88)"/>
<path d="M0 0 C1.65 1.65 3.3 3.3 5 5 C2.94876752 7.05123248 1.72994937 7.64147118 -0.9375 8.625 C-1.62714844 8.88539062 -2.31679688 9.14578125 -3.02734375 9.4140625 C-5 10 -5 10 -8 10 C-8 6.88742431 -7.82638376 4.89234315 -7 2 C-6.030625 1.855625 -5.06125 1.71125 -4.0625 1.5625 C-1.13513227 1.32437659 -1.13513227 1.32437659 0 0 Z " fill="#E2E2E2" transform="translate(34,41)"/>
<path d="M0 0 C2.31 0 4.62 0 7 0 C7 0.66 7 1.32 7 2 C6.03900391 2.45439453 6.03900391 2.45439453 5.05859375 2.91796875 C-0.36659682 5.5456691 -5.20277542 8.34993782 -10 12 C-10 10.68 -10 9.36 -10 8 C-12.475 7.01 -12.475 7.01 -15 6 C-14.67 5.34 -14.34 4.68 -14 4 C-9.545 4.99 -9.545 4.99 -5 6 C-5 5.34 -5 4.68 -5 4 C-3.35178756 2.96986723 -1.68496298 1.96885372 0 1 C0 0.67 0 0.34 0 0 Z " fill="#C83036" transform="translate(80,66)"/>
<path d="M0 0 C2.86176003 0.16833883 5.4323455 0.400313 8.1875 1.1875 C8.5175 1.8475 8.8475 2.5075 9.1875 3.1875 C8.1975 4.6725 8.1975 4.6725 7.1875 6.1875 C6.79736284 8.1771995 6.45547351 10.17769869 6.1875 12.1875 C5.5275 12.1875 4.8675 12.1875 4.1875 12.1875 C3.5275 8.8875 2.8675 5.5875 2.1875 2.1875 C0.5375 2.5175 -1.1125 2.8475 -2.8125 3.1875 C-2.8125 6.4875 -2.8125 9.7875 -2.8125 13.1875 C-5.52482939 9.11900591 -5.11949887 7.02273216 -4.8125 2.1875 C-2.8125 0.1875 -2.8125 0.1875 0 0 Z " fill="#787778" transform="translate(117.8125,201.8125)"/>
<path d="M0 0 C0.33 0 0.66 0 1 0 C1.20086443 3.71599191 1.1519437 4.77208445 -1 8 C-1.309375 9.134375 -1.61875 10.26875 -1.9375 11.4375 C-3 15 -3 15 -4.5625 16.9375 C-6.77212508 20.10783164 -6.68171258 23.18055099 -7 27 C-7.99 27.33 -8.98 27.66 -10 28 C-9.13774562 21.6817567 -7.36982329 15.95281635 -5 10.0625 C-4.73880371 9.4120874 -4.47760742 8.7616748 -4.20849609 8.09155273 C-3.00237779 5.16791892 -1.76117082 2.64175623 0 0 Z " fill="#C73539" transform="translate(31,70)"/>
<path d="M0 0 C0.99 0 1.98 0 3 0 C3.69937202 1.4317616 4.38412718 2.87067032 5.0625 4.3125 C5.44535156 5.11300781 5.82820313 5.91351563 6.22265625 6.73828125 C7 9 7 9 6 12 C5.67 11.01 5.34 10.02 5 9 C2.69 9 0.38 9 -2 9 C-2.33 10.32 -2.66 11.64 -3 13 C-4.23593891 9.29218328 -3.5678132 8.32489747 -2.0625 4.8125 C-1.68222656 3.91144531 -1.30195312 3.01039062 -0.91015625 2.08203125 C-0.60980469 1.39496094 -0.30945313 0.70789062 0 0 Z " fill="#6B6C6C" transform="translate(100,10)"/>
<path d="M0 0 C0.99 0.495 0.99 0.495 2 1 C2 2.65 2 4.3 2 6 C2.928125 6 3.85625 6 4.8125 6 C6.875 6 8.9375 6 11 6 C9.54782324 7.50596108 8.08807139 9.00462104 6.625 10.5 C5.81289062 11.3353125 5.00078125 12.170625 4.1640625 13.03125 C2 15 2 15 0 15 C0 10.05 0 5.1 0 0 Z " fill="#363636" transform="translate(61,192)"/>
<path d="M0 0 C2 2 2 2 2 5 C2.66 5 3.32 5 4 5 C4.66 7.64 5.32 10.28 6 13 C2.37 11.02 -1.26 9.04 -5 7 C-4.67 6.01 -4.34 5.02 -4 4 C-4.33 3.34 -4.66 2.68 -5 2 C-3.35 1.34 -1.7 0.68 0 0 Z " fill="#F1F2EE" transform="translate(136,192)"/>
<path d="M0 0 C3.40198926 4.04998722 6 8.63626649 6 14 C0.98491285 12.45941767 -3.6147081 10.97068161 -8 8 C-5.6921509 6.84607545 -3.52769669 6.46562834 -1 6 C0.15811388 3.05270463 0.15811388 3.05270463 0 0 Z " fill="#676768" transform="translate(171,173)"/>
<path d="M0 0 C0 0.66 0 1.32 0 2 C-1.32 2 -2.64 2 -4 2 C-4 4.31 -4 6.62 -4 9 C-2.68 9.33 -1.36 9.66 0 10 C-3.70781672 11.23593891 -4.67510253 10.5678132 -8.1875 9.0625 C-9.08855469 8.68222656 -9.98960938 8.30195312 -10.91796875 7.91015625 C-11.94857422 7.45962891 -11.94857422 7.45962891 -13 7 C-12 4 -12 4 -9.78515625 2.83203125 C-8.43744141 2.32736328 -8.43744141 2.32736328 -7.0625 1.8125 C-6.16660156 1.46832031 -5.27070313 1.12414062 -4.34765625 0.76953125 C-2 0 -2 0 0 0 Z " fill="#606060" transform="translate(14,109)"/>
<path d="M0 0 C-1.98 0.99 -1.98 0.99 -4 2 C-4 3.98 -4 5.96 -4 8 C-3.34 8.33 -2.68 8.66 -2 9 C-2 9.66 -2 10.32 -2 11 C-5.03852705 9.59023295 -7.5939595 7.91129772 -10.25 5.875 C-10.95640625 5.33617188 -11.6628125 4.79734375 -12.390625 4.2421875 C-12.92171875 3.83226563 -13.4528125 3.42234375 -14 3 C-13.67 2.34 -13.34 1.68 -13 1 C-8.65012229 -0.03568517 -4.45537928 -0.08910759 0 0 Z " fill="#666766" transform="translate(17,88)"/>
<path d="M0 0 C0.66 0 1.32 0 2 0 C2.33 4.62 2.66 9.24 3 14 C-1.95003075 12.0199877 -4.13939157 10.41170047 -8 7 C-7.67 6.34 -7.34 5.68 -7 5 C-6.21625 5.185625 -5.4325 5.37125 -4.625 5.5625 C-2.02910225 6.25962266 -2.02910225 6.25962266 0 5 C0 3.35 0 1.7 0 0 Z " fill="#333333" transform="translate(151,189)"/>
<path d="M0 0 C0.99 0 1.98 0 3 0 C3.33 1.98 3.66 3.96 4 6 C4.66 6 5.32 6 6 6 C6.66 4.02 7.32 2.04 8 0 C8.66 0 9.32 0 10 0 C9.79503906 0.556875 9.59007813 1.11375 9.37890625 1.6875 C7.56121505 6.83617554 6.49429453 11.56276016 6 17 C5.34 17 4.68 17 4 17 C3.87882812 16.35933594 3.75765625 15.71867188 3.6328125 15.05859375 C2.64320773 9.95071067 1.51489049 4.97749731 0 0 Z " fill="#0F1010" transform="translate(118,115)"/>
<path d="M0 0 C0 0.66 0 1.32 0 2 C-2.31 2.66 -4.62 3.32 -7 4 C-7 4.66 -7 5.32 -7 6 C-6.37351563 5.90460938 -5.74703125 5.80921875 -5.1015625 5.7109375 C-4.28429687 5.60007813 -3.46703125 5.48921875 -2.625 5.375 C-1.40683594 5.20097656 -1.40683594 5.20097656 -0.1640625 5.0234375 C0.55007812 5.01570312 1.26421875 5.00796875 2 5 C2.66 5.66 3.32 6.32 4 7 C3.8125 9 3.8125 9 3 11 C0 13 0 13 -2.1875 12.625 C-2.785625 12.41875 -3.38375 12.2125 -4 12 C-4 11.67 -4 11.34 -4 11 C-2.35 10.67 -0.7 10.34 1 10 C1.33 9.01 1.66 8.02 2 7 C-1.3 7.33 -4.6 7.66 -8 8 C-8.6875 5.6875 -8.6875 5.6875 -9 3 C-6.81596628 -0.72570458 -3.98864065 -0.26590938 0 0 Z " fill="#535454" transform="translate(164,184)"/>
<path d="M0 0 C0 4.29 0 8.58 0 13 C-1.32 13 -2.64 13 -4 13 C-5.17051429 10.65897141 -5.1992246 9.10647047 -5.25 6.5 C-5.27578125 5.7059375 -5.3015625 4.911875 -5.328125 4.09375 C-5.21984375 3.4028125 -5.1115625 2.711875 -5 2 C-2 0 -2 0 0 0 Z " fill="#FDFCFB" transform="translate(189,118)"/>
<path d="M0 0 C0.33 0 0.66 0 1 0 C1.33 3.63 1.66 7.26 2 11 C3.98 9.35 5.96 7.7 8 6 C6.32598022 9.95677402 3.86850715 12.84464213 1 16 C0.34 16 -0.32 16 -1 16 C-1.08159574 11.83861737 -0.98248524 8.0527516 0 4 C-0.66 4 -1.32 4 -2 4 C-2.28875 4.598125 -2.5775 5.19625 -2.875 5.8125 C-4 8 -4 8 -6 11 C-6.66 11 -7.32 11 -8 11 C-6.64199529 8.03469503 -5.07571737 5.70868729 -2.9375 3.25 C-2.41027344 2.63640625 -1.88304687 2.0228125 -1.33984375 1.390625 C-0.89769531 0.93171875 -0.45554688 0.4728125 0 0 Z " fill="#3D3D3D" transform="translate(168,32)"/>
<path d="M0 0 C1.32 0 2.64 0 4 0 C4 4.95 4 9.9 4 15 C2.68 14.67 1.36 14.34 0 14 C0 9.38 0 4.76 0 0 Z " fill="#FCFBFA" transform="translate(192,118)"/>
<path d="M0 0 C1.43931117 0.45261358 2.87638999 0.91232979 4.3125 1.375 C5.11300781 1.63023438 5.91351563 1.88546875 6.73828125 2.1484375 C9 3 9 3 12 5 C12 5.66 12 6.32 12 7 C9.03 7.66 6.06 8.32 3 9 C3.61875 9.45375 4.2375 9.9075 4.875 10.375 C7 12 7 12 9 14 C4.61110675 13.33501617 1.0188515 11.81242323 -3 10 C-3 9.34 -3 8.68 -3 8 C0.63 7.01 4.26 6.02 8 5 C5.36 4.01 2.72 3.02 0 2 C0 1.34 0 0.68 0 0 Z " fill="#2E2E2E" transform="translate(9,71)"/>
<path d="M0 0 C2.97 0 5.94 0 9 0 C9 0.99 9 1.98 9 3 C7.68 3 6.36 3 5 3 C5 7.62 5 12.24 5 17 C4.34 17 3.68 17 3 17 C3 12.38 3 7.76 3 3 C2.01 3 1.02 3 0 3 C0 2.01 0 1.02 0 0 Z " fill="#222120" transform="translate(186,115)"/>
<path d="M0 0 C0.2475 0.598125 0.495 1.19625 0.75 1.8125 C2.17002708 4.29754739 3.72705959 5.31362486 6 7 C6.33 7.99 6.66 8.98 7 10 C7.66 10.33 8.32 10.66 9 11 C8.67 12.65 8.34 14.3 8 16 C7.34 16 6.68 16 6 16 C5.67 15.01 5.34 14.02 5 13 C4.071875 12.13375 4.071875 12.13375 3.125 11.25 C0.40029175 8.36501479 -0.58053336 5.69061326 -2 2 C-1.34 1.34 -0.68 0.68 0 0 Z " fill="#F4FBFD" transform="translate(138,81)"/>
<path d="M0 0 C0.99 0.495 0.99 0.495 2 1 C2 2.32 2 3.64 2 5 C4.31 5 6.62 5 9 5 C7.94124926 8.40312738 6.99097846 11.01353231 5 14 C4.34 14 3.68 14 3 14 C2.49307308 12.4188708 1.99473557 10.83498617 1.5 9.25 C1.2215625 8.36828125 0.943125 7.4865625 0.65625 6.578125 C0 4 0 4 0 0 Z " fill="#686768" transform="translate(86,201)"/>
<path d="M0 0 C0.33 0.66 0.66 1.32 1 2 C-0.32235548 4.00802128 -1.65736197 6.00559594 -3 8 C-3.40863281 8.62261719 -3.81726563 9.24523437 -4.23828125 9.88671875 C-8.19652527 15.73217509 -8.19652527 15.73217509 -12 17 C-11.67 15.35 -11.34 13.7 -11 12 C-9.68 11.67 -8.36 11.34 -7 11 C-7 9.68 -7 8.36 -7 7 C-6.34 7 -5.68 7 -5 7 C-4.9175 6.21625 -4.835 5.4325 -4.75 4.625 C-4 2 -4 2 -1.9375 0.6875 C-1.298125 0.460625 -0.65875 0.23375 0 0 Z " fill="#F1EA42" transform="translate(176,153)"/>
<path d="M0 0 C0.99 0 1.98 0 3 0 C3.66 3.63 4.32 7.26 5 11 C5.99 11.33 6.98 11.66 8 12 C8.33 12.99 8.66 13.98 9 15 C8.01 15.33 7.02 15.66 6 16 C4 14 4 14 2 11 C2 10.01 2 9.02 2 8 C0.35 8 -1.3 8 -3 8 C-3.33 7.34 -3.66 6.68 -4 6 C-3.01 6 -2.02 6 -1 6 C-0.67 4.02 -0.34 2.04 0 0 Z " fill="#FAFCFA" transform="translate(153,32)"/>
<path d="M0 0 C1.66666667 1.66666667 3.33333333 3.33333333 5 5 C5.598125 5.53625 6.19625 6.0725 6.8125 6.625 C8 8 8 8 8 11 C1.07 10.505 1.07 10.505 -6 10 C-6 9.67 -6 9.34 -6 9 C-4.02 9 -2.04 9 0 9 C0.93380961 4.46859347 0.93380961 4.46859347 0 0 Z " fill="#5D5E5D" transform="translate(184,155)"/>
<path d="M0 0 C3 1 3 1 4.16796875 2.84765625 C4.50441406 3.57855469 4.84085937 4.30945313 5.1875 5.0625 C5.53167969 5.79597656 5.87585938 6.52945312 6.23046875 7.28515625 C6.48441406 7.85105469 6.73835938 8.41695312 7 9 C7.66 6.36 8.32 3.72 9 1 C9.33 1 9.66 1 10 1 C10.02712066 2.43739513 10.04645067 3.87493863 10.0625 5.3125 C10.07410156 6.11300781 10.08570312 6.91351563 10.09765625 7.73828125 C10 10 10 10 9 13 C6 12 6 12 4.83203125 10.15234375 C4.49558594 9.42144531 4.15914063 8.69054687 3.8125 7.9375 C3.29623047 6.83728516 3.29623047 6.83728516 2.76953125 5.71484375 C2.51558594 5.14894531 2.26164062 4.58304688 2 4 C1.34 6.64 0.68 9.28 0 12 C-0.33 12 -0.66 12 -1 12 C-0.67 8.04 -0.34 4.08 0 0 Z " fill="#403E3E" transform="translate(111,10)"/>
<path d="M0 0 C0.66 0 1.32 0 2 0 C2.6708712 1.6232687 3.33657029 3.24867578 4 4.875 C4.556875 6.23238281 4.556875 6.23238281 5.125 7.6171875 C6 10 6 10 6 12 C1.89041233 10.54955729 -1.43258745 8.48889248 -5 6 C-4.34 8.97 -3.68 11.94 -3 15 C-5.34914492 12.65085508 -5.73140357 11.04320554 -6.625 7.875 C-6.88539063 6.96492187 -7.14578125 6.05484375 -7.4140625 5.1171875 C-7.60742188 4.41851562 -7.80078125 3.71984375 -8 3 C-4.40608886 4.33488128 -1.24509304 5.96022723 2 8 C1.34 5.36 0.68 2.72 0 0 Z " fill="#383839" transform="translate(139,196)"/>
<path d="M0 0 C10.56 0 21.12 0 32 0 C32 0.33 32 0.66 32 1 C30.9330188 1.03758423 30.9330188 1.03758423 29.84448242 1.07592773 C26.62530483 1.19188439 23.40642015 1.31461245 20.1875 1.4375 C19.06794922 1.47681641 17.94839844 1.51613281 16.79492188 1.55664062 C15.18520508 1.61948242 15.18520508 1.61948242 13.54296875 1.68359375 C12.0583313 1.73858032 12.0583313 1.73858032 10.54370117 1.79467773 C7.8781649 1.90790331 7.8781649 1.90790331 5 3 C3.31461399 4.99665314 3.31461399 4.99665314 2 7 C1.34 4.69 0.68 2.38 0 0 Z " fill="#242055" transform="translate(63,121)"/>
<path d="M0 0 C0.99 0.33 1.98 0.66 3 1 C3 2.98 3 4.96 3 7 C14.22 7 25.44 7 37 7 C37.33 6.01 37.66 5.02 38 4 C38 5.32 38 6.64 38 8 C26.12 8 14.24 8 2 8 C1.34 5.36 0.68 2.72 0 0 Z " fill="#297EAD" transform="translate(149,96)"/>
<path d="M0 0 C0.75 2.75 0.75 2.75 1 6 C-0.9375 8.375 -0.9375 8.375 -3 10 C-3.66 9.34 -4.32 8.68 -5 8 C-4.34 8 -3.68 8 -3 8 C-3.33 7.01 -3.66 6.02 -4 5 C-7.50294871 3.28432339 -7.50294871 3.28432339 -11 2 C-7.06425135 -0.62383243 -4.54354105 -1.51451368 0 0 Z " fill="#E7ECE9" transform="translate(20,79)"/>
<path d="M0 0 C1.875 1.125 1.875 1.125 3 3 C3.38601984 6.08815875 3.47901666 8.10184376 2 10.875 C-1.37806895 12.77516379 -4.16618269 12.36512546 -8 12 C-10 9 -10 9 -9.8125 5.4375 C-8.46874872 -0.24760157 -5.31129528 -0.55325992 0 0 Z M-8 3.1875 C-9.25768528 5.05212698 -9.25768528 5.05212698 -8.6875 7.6875 C-8.460625 8.450625 -8.23375 9.21375 -8 10 C-3.38990512 11.17008745 -3.38990512 11.17008745 0.9375 9.875 C2.3190465 7.43697676 2.29044498 5.7592273 2 3 C0.83622098 1.61857444 0.83622098 1.61857444 -2.375 1.75 C-5.86601421 1.71748882 -5.86601421 1.71748882 -8 3.1875 Z " fill="#3C3A3B" transform="translate(196,68)"/>
<path d="M0 0 C0.6875 1.75 0.6875 1.75 1 4 C-0.7573799 7.07541482 -1.57945994 7.85981998 -5 9 C-5.99 10.485 -5.99 10.485 -7 12 C-9.3828125 13.16796875 -9.3828125 13.16796875 -12.125 14.1875 C-13.03507813 14.53167969 -13.94515625 14.87585938 -14.8828125 15.23046875 C-15.58148438 15.48441406 -16.28015625 15.73835937 -17 16 C-17 15.34 -17 14.68 -17 14 C-15.9275 13.38125 -14.855 12.7625 -13.75 12.125 C-13.11191406 11.75632813 -12.47382813 11.38765625 -11.81640625 11.0078125 C-10 10 -10 10 -7.6875 9 C-5.47738763 7.69030378 -5.08298065 6.30133389 -4 4 C-2.70529025 2.62913085 -1.37849103 1.28659163 0 0 Z " fill="#FCFAC4" transform="translate(166,168)"/>
<path d="M0 0 C0.66 0 1.32 0 2 0 C1.67 1.32 1.34 2.64 1 4 C1.99 4.33 2.98 4.66 4 5 C4 5.66 4 6.32 4 7 C0.37 7 -3.26 7 -7 7 C-6 4 -6 4 -5 3 C-5.66 2.34 -6.32 1.68 -7 1 C-5.33388095 0.957279 -3.66617115 0.95936168 -2 1 C-1.67 1.33 -1.34 1.66 -1 2 C-0.67 1.34 -0.34 0.68 0 0 Z " fill="#FCFCFB" transform="translate(139,132)"/>
<path d="M0 0 C0.33 0 0.66 0 1 0 C1.33 2.31 1.66 4.62 2 7 C2.33 7 2.66 7 3 7 C3.33 4.69 3.66 2.38 4 0 C4.33 0 4.66 0 5 0 C5 4.62 5 9.24 5 14 C3.68 14.33 2.36 14.66 1 15 C0 14 0 14 -0.09765625 10.83984375 C-0.08025391 8.90818359 -0.08025391 8.90818359 -0.0625 6.9375 C-0.05347656 5.64714844 -0.04445312 4.35679688 -0.03515625 3.02734375 C-0.02355469 2.02832031 -0.01195312 1.02929688 0 0 Z " fill="#DFDEDC" transform="translate(132,115)"/>
<path d="M0 0 C0.66 0.33 1.32 0.66 2 1 C1.01 2.485 1.01 2.485 0 4 C0.25690566 7.85358487 2.55634629 10.1622086 5 13 C2.04590299 11.62845496 -0.44008376 10.01136276 -3 8 C-3.33 9.98 -3.66 11.96 -4 14 C-4.66 14 -5.32 14 -6 14 C-6.98248524 9.9472484 -7.08159574 6.16138263 -7 2 C-6.01 3.32 -5.02 4.64 -4 6 C-2.68 4.02 -1.36 2.04 0 0 Z " fill="#3D3E3E" transform="translate(90,10)"/>
<path d="M0 0 C-0.55312735 4.02992782 -1.1558062 8.02022924 -2 12 C0.31 10.35 2.62 8.7 5 7 C3.4972742 11.20763224 0.76667005 12.8027758 -3 15 C-3.66 15 -4.32 15 -5 15 C-4.34 11.37 -3.68 7.74 -3 4 C-4.98 4.99 -4.98 4.99 -7 6 C-2.38461538 0 -2.38461538 0 0 0 Z " fill="#39383A" transform="translate(31,165)"/>
<path d="M0 0 C0.66 0.33 1.32 0.66 2 1 C1.67 1.66 1.34 2.32 1 3 C1.99 3.33 2.98 3.66 4 4 C4 4.66 4 5.32 4 6 C2.54735962 6.8638129 1.0876837 7.71580454 -0.375 8.5625 C-1.59316406 9.27599609 -1.59316406 9.27599609 -2.8359375 10.00390625 C-3.55007812 10.33261719 -4.26421875 10.66132813 -5 11 C-5.66 10.67 -6.32 10.34 -7 10 C-6.505 9.54625 -6.01 9.0925 -5.5 8.625 C-3.77390663 7.12364481 -3.77390663 7.12364481 -4 5 C-4.66 4.34 -5.32 3.68 -6 3 C-4.03533587 1.93224776 -2.03144641 0.93446535 0 0 Z " fill="#7D7D7D" transform="translate(24,157)"/>
<path d="M0 0 C0.99 0 1.98 0 3 0 C3 5.61 3 11.22 3 17 C3.66 17.33 4.32 17.66 5 18 C3.35 17.67 1.7 17.34 0 17 C-0.33 17.99 -0.66 18.98 -1 20 C-1.33 19.01 -1.66 18.02 -2 17 C-1.67 16.34 -1.34 15.68 -1 15 C-0.76827173 12.45384991 -0.58105471 9.92603775 -0.4375 7.375 C-0.39431641 6.66859375 -0.35113281 5.9621875 -0.30664062 5.234375 C-0.20055249 3.48981463 -0.09977111 1.74493303 0 0 Z " fill="#D5D4D3" transform="translate(139,115)"/>
<path d="M0 0 C4.75 1.875 4.75 1.875 7 3 C6.67 3.99 6.34 4.98 6 6 C5.01 6 4.02 6 3 6 C3 6.99 3 7.98 3 9 C1 11.1875 1 11.1875 -1 13 C-1.99 12.67 -2.98 12.34 -4 12 C-3.360625 11.278125 -2.72125 10.55625 -2.0625 9.8125 C-0.01326465 7.01808816 0.61332946 5.38336726 1 2 C0.34 1.67 -0.32 1.34 -1 1 C-0.67 0.67 -0.34 0.34 0 0 Z " fill="#F7FBF9" transform="translate(37,47)"/>
<path d="M0 0 C1.82421875 1.21484375 1.82421875 1.21484375 3.6875 2.9375 C4.31011719 3.50339844 4.93273437 4.06929687 5.57421875 4.65234375 C6.04472656 5.09707031 6.51523438 5.54179687 7 6 C6.67 7.32 6.34 8.64 6 10 C4.68 10 3.36 10 2 10 C0 8 0 8 -0.5 4.9375 C-0.665 3.968125 -0.83 2.99875 -1 2 C-1.66 1.67 -2.32 1.34 -3 1 C-2.01 0.67 -1.02 0.34 0 0 Z " fill="#E9E9E8" transform="translate(142,194)"/>
<path d="M0 0 C0.33 0 0.66 0 1 0 C1 4.95 1 9.9 1 15 C-3.455 16.485 -3.455 16.485 -8 18 C-8.99 17.01 -9.98 16.02 -11 15 C-10.6875 12.8125 -10.6875 12.8125 -10 11 C-10 11.99 -10 12.98 -10 14 C-9.01 14 -8.02 14 -7 14 C-6.67 13.01 -6.34 12.02 -6 11 C-4.02 11.99 -2.04 12.98 0 14 C0 9.38 0 4.76 0 0 Z " fill="#C9CAC1" transform="translate(191,118)"/>
<path d="M0 0 C2.31 0 4.62 0 7 0 C7.33 0.99 7.66 1.98 8 3 C6.02 3 4.04 3 2 3 C2 7.62 2 12.24 2 17 C1.34 17 0.68 17 0 17 C0 11.39 0 5.78 0 0 Z " fill="#121110" transform="translate(153,115)"/>
<path d="M0 0 C0 0.66 0 1.32 0 2 C-1.2065625 2.61875 -1.2065625 2.61875 -2.4375 3.25 C-5.28529578 4.79724236 -5.28529578 4.79724236 -5.875 8 C-6.1801923 11.05183614 -6.1801923 11.05183614 -5 14 C-5.99 14.33 -6.98 14.66 -8 15 C-10.44375 8.675 -10.44375 8.675 -9 5 C-7.44140625 3.515625 -7.44140625 3.515625 -5.5625 2.25 C-4.94503906 1.82203125 -4.32757813 1.3940625 -3.69140625 0.953125 C-2 0 -2 0 0 0 Z M-11 13 C-10.34 13.66 -9.68 14.32 -9 15 C-9.66 15 -10.32 15 -11 15 C-11 14.34 -11 13.68 -11 13 Z " fill="#858583" transform="translate(190,56)"/>
<path d="M0 0 C0.66 0.33 1.32 0.66 2 1 C-0.66666667 7.66666667 -3.33333333 14.33333333 -6 21 C-6.99 20.67 -7.98 20.34 -9 20 C-8.731875 19.38125 -8.46375 18.7625 -8.1875 18.125 C-6.98659286 15.13265429 -6.98659286 15.13265429 -6.33984375 12.4765625 C-6.10394531 11.57679687 -5.86804688 10.67703125 -5.625 9.75 C-5.41101563 8.87859375 -5.19703125 8.0071875 -4.9765625 7.109375 C-4 5 -4 5 -1.8984375 4.203125 C-1.27195312 4.13609375 -0.64546875 4.0690625 0 4 C-0.33 3.01 -0.66 2.02 -1 1 C-0.67 0.67 -0.34 0.34 0 0 Z " fill="#FDE6E0" transform="translate(30,67)"/>
<path d="M0 0 C3.71888239 0.50712033 6.73454239 1.11608215 10 3 C6.79937313 4.60031344 4.27728194 3.03173691 1 2 C1 2.99 1 3.98 1 5 C2.94009522 6.70532323 2.94009522 6.70532323 5 8 C2.03 7.505 2.03 7.505 -1 7 C-1 8.32 -1 9.64 -1 11 C-0.34 11.66 0.32 12.32 1 13 C-0.65 12.67 -2.3 12.34 -4 12 C-2.66666667 8 -1.33333333 4 0 0 Z " fill="#404040" transform="translate(143,18)"/>
<path d="M0 0 C0.66 0.33 1.32 0.66 2 1 C0.515 2.485 0.515 2.485 -1 4 C-0.34 4.66 0.32 5.32 1 6 C-0.375 8 -0.375 8 -2 10 C-2.66 10 -3.32 10 -4 10 C-5.38232443 8.37373596 -6.71937515 6.7074998 -8 5 C-6.71475739 4.13619741 -5.42157581 3.28419631 -4.125 2.4375 C-3.04605469 1.72400391 -3.04605469 1.72400391 -1.9453125 0.99609375 C-1.30335937 0.66738281 -0.66140625 0.33867187 0 0 Z " fill="#CDCDCD" transform="translate(24,164)"/>
<path d="M0 0 C6.67107494 2.49294867 12.86363979 5.38340123 19 9 C15.25 10.125 15.25 10.125 13 9 C13 8.34 13 7.68 13 7 C12.236875 6.87625 11.47375 6.7525 10.6875 6.625 C8 6 8 6 5 4 C2.72087062 3.54605448 2.72087062 3.54605448 0.3125 3.375 C-0.49574219 3.30023438 -1.30398437 3.22546875 -2.13671875 3.1484375 C-2.75160156 3.09945312 -3.36648437 3.05046875 -4 3 C-2.68 2.67 -1.36 2.34 0 2 C0 1.34 0 0.68 0 0 Z " fill="#3E8FBC" transform="translate(132,33)"/>
<path d="M0 0 C0.66 0 1.32 0 2 0 C2.03738281 0.98742187 2.07476562 1.97484375 2.11328125 2.9921875 C2.17902344 4.27351563 2.24476563 5.55484375 2.3125 6.875 C2.37050781 8.15117188 2.42851562 9.42734375 2.48828125 10.7421875 C2.65714844 11.81726563 2.82601562 12.89234375 3 14 C3.99 14.66 4.98 15.32 6 16 C4.125 16.625 4.125 16.625 2 17 C0 15 0 15 -0.1953125 11.5234375 C-0.18201493 10.14049032 -0.15816232 8.75761346 -0.125 7.375 C-0.11597656 6.66859375 -0.10695312 5.9621875 -0.09765625 5.234375 C-0.07407603 3.48943902 -0.03820461 1.74467705 0 0 Z " fill="#0D0C0B" transform="translate(130,115)"/>
<path d="M0 0 C0.33 0 0.66 0 1 0 C1.125 3.375 1.125 3.375 1 7 C-1 9 -1 9 -4.125 9.125 C-5.548125 9.063125 -5.548125 9.063125 -7 9 C-7 7.68 -7 6.36 -7 5 C-5.02 5 -3.04 5 -1 5 C-0.67 3.35 -0.34 1.7 0 0 Z " fill="#FBFAF8" transform="translate(206,120)"/>
<path d="M0 0 C0 0.33 0 0.66 0 1 C-3.3 1.66 -6.6 2.32 -10 3 C-10 3.66 -10 4.32 -10 5 C-10.928125 5.12375 -10.928125 5.12375 -11.875 5.25 C-14.18437567 5.81258459 -14.18437567 5.81258459 -15.25 8.0625 C-15.4975 8.701875 -15.745 9.34125 -16 10 C-17.65 9.67 -19.3 9.34 -21 9 C-14.72473368 3.53444546 -8.52553819 -0.90697215 0 0 Z " fill="#C63132" transform="translate(75,36)"/>
<path d="M0 0 C1.1446875 0.2475 1.1446875 0.2475 2.3125 0.5 C5.03596236 1.09145396 5.03596236 1.09145396 8 1 C8 2.98 8 4.96 8 7 C7.01 7.495 7.01 7.495 6 8 C6 7.34 6 6.68 6 6 C3.03 5.505 3.03 5.505 0 5 C0 3.35 0 1.7 0 0 Z " fill="#FCFCFB" transform="translate(22,151)"/>
<path d="M0 0 C0 0.66 0 1.32 0 2 C1.32 2.66 2.64 3.32 4 4 C-6.37357631 9.55580866 -6.37357631 9.55580866 -12 10 C-11 8 -11 8 -8.93359375 7.1484375 C-8.10988281 6.89320313 -7.28617187 6.63796875 -6.4375 6.375 C-5.61121094 6.11460937 -4.78492187 5.85421875 -3.93359375 5.5859375 C-3.29550781 5.39257812 -2.65742187 5.19921875 -2 5 C-2 4.34 -2 3.68 -2 3 C-3.65 3 -5.3 3 -7 3 C-2.5 0 -2.5 0 0 0 Z " fill="#FDFBCF" transform="translate(124,150)"/>
<path d="M0 0 C0.66 0.33 1.32 0.66 2 1 C2 2.32 2 3.64 2 5 C1.34 5 0.68 5 0 5 C0 5.66 0 6.32 0 7 C-1.98 7.66 -3.96 8.32 -6 9 C-6 8.34 -6 7.68 -6 7 C-5.34 6.67 -4.68 6.34 -4 6 C-4.33 4.68 -4.66 3.36 -5 2 C-2.625 0.9375 -2.625 0.9375 0 0 Z " fill="#F8EFEB" transform="translate(72,28)"/>
<path d="M0 0 C0.66 0.33 1.32 0.66 2 1 C2.94934202 3.92713788 3.23176473 5.42831368 2.0625 8.3125 C1.5365625 9.1478125 1.5365625 9.1478125 1 10 C-0.65 10 -2.3 10 -4 10 C-3.34 9.34 -2.68 8.68 -2 8 C-2.32198966 4.90073181 -2.32198966 4.90073181 -3 2 C-2.01 1.34 -1.02 0.68 0 0 Z " fill="#E0E0E0" transform="translate(183,154)"/>
<path d="M0 0 C0.66 0 1.32 0 2 0 C2 1.32 2 2.64 2 4 C5.63 4.33 9.26 4.66 13 5 C13 5.33 13 5.66 13 6 C9.37 6 5.74 6 2 6 C2 7.32 2 8.64 2 10 C1.34 10 0.68 10 0 10 C0 6.7 0 3.4 0 0 Z " fill="#535353" transform="translate(1,98)"/>
<path d="M0 0 C0.66 0.33 1.32 0.66 2 1 C2 2.65 2 4.3 2 6 C-0.64 6.99 -3.28 7.98 -6 9 C-4.86634892 4.46539569 -3.35806626 3.09975347 0 0 Z " fill="#C82A2A" transform="translate(76,81)"/>
<path d="M0 0 C0 2.83967231 -0.40267181 5.23735711 -1 8 C-1.99 8 -2.98 8 -4 8 C-4.66 9.98 -5.32 11.96 -6 14 C-6.99 13.67 -7.98 13.34 -9 13 C-6.38888348 8.16459904 -3.62542917 4.12896099 0 0 Z " fill="#C03339" transform="translate(42,55)"/>
<path d="M0 0 C1.65 1.65 3.3 3.3 5 5 C4.34 6.98 3.68 8.96 3 11 C2.6596875 10.1028125 2.6596875 10.1028125 2.3125 9.1875 C0.66188867 6.43648112 -1.1972081 5.47515363 -4 4 C-3.34 3.67 -2.68 3.34 -2 3 C-1.67 2.34 -1.34 1.68 -1 1 C-0.67 0.67 -0.34 0.34 0 0 Z " fill="#E5E5E5" transform="translate(22,49)"/>
<path d="M0 0 C2.47878682 2.1554668 3.57563804 3.71119485 4 7 C3.67 7.66 3.34 8.32 3 9 C2.01 9.33 1.02 9.66 0 10 C-0.66 10.66 -1.32 11.32 -2 12 C-2.625 9.625 -2.625 9.625 -3 7 C-2.34 6.34 -1.68 5.68 -1 5 C-0.35232207 2.42938689 -0.35232207 2.42938689 0 0 Z " fill="#E9E8E6" transform="translate(112,13)"/>
<path d="M0 0 C4.29 0 8.58 0 13 0 C13 2.64 13 5.28 13 8 C12.67 8 12.34 8 12 8 C12 5.69 12 3.38 12 1 C8.88214887 1.64644661 8.88214887 1.64644661 8 4 C3.91927658 3.44855089 3.08669204 3.08669204 0 0 Z " fill="#A19FA1" transform="translate(144,31)"/>
<path d="M0 0 C2.83857423 2.83857423 2.90046025 6.13326348 3 10 C2.67 10.99 2.34 11.98 2 13 C1.01 13 0.02 13 -1 13 C-0.67 8.71 -0.34 4.42 0 0 Z " fill="#3490BF" transform="translate(184,90)"/>
<path d="M0 0 C3.58806317 3.38872633 6.45684799 6.76141332 9 11 C9 11.66 9 12.32 9 13 C6 12 6 12 4 9 C3.2265625 8.3503125 3.2265625 8.3503125 2.4375 7.6875 C0.41142035 5.30905868 0.33839828 3.04558448 0 0 Z " fill="#D1F1FA" transform="translate(138,79)"/>
<path d="M0 0 C3.35595828 0.59927826 5.37801226 1.84622436 8 4 C7.67 5.65 7.34 7.3 7 9 C5.82460004 8.07347299 4.65989423 7.13336613 3.5 6.1875 C2.52546875 5.40439453 2.52546875 5.40439453 1.53125 4.60546875 C0 3 0 3 0 0 Z " fill="#F5F4F3" transform="translate(89,14)"/>
<path d="M0 0 C0.33 0.99 0.66 1.98 1 3 C-1.57784846 5.64752004 -3.91648098 7.94432065 -7 10 C-7.66 9.34 -8.32 8.68 -9 8 C-7.50164772 3.33845958 -4.11536409 2.13389249 0 0 Z " fill="#FAFBF7" transform="translate(75,77)"/>
<path d="M0 0 C1.32 0.33 2.64 0.66 4 1 C3.67 2.65 3.34 4.3 3 6 C2.01 6.33 1.02 6.66 0 7 C-0.99 6.01 -1.98 5.02 -3 4 C-2.01 2.68 -1.02 1.36 0 0 Z " fill="#EBEBEB" transform="translate(19,56)"/>
<path d="M0 0 C0.99 0.33 1.98 0.66 3 1 C3.74259349 3.31029085 4.411438 5.645752 5 8 C5.33 8.33 5.66 8.66 6 9 C6.04063832 10.66617115 6.042721 12.33388095 6 14 C2.30250259 9.92000285 0.7410336 6.13604912 -1 1 C-0.67 0.67 -0.34 0.34 0 0 Z " fill="#322D5F" transform="translate(27,143)"/>
<path d="M0 0 C2.31 0.33 4.62 0.66 7 1 C7.33 2.32 7.66 3.64 8 5 C6.68 5.99 5.36 6.98 4 8 C4 6.68 4 5.36 4 4 C1.525 3.01 1.525 3.01 -1 2 C-0.67 1.34 -0.34 0.68 0 0 Z " fill="#CE2C2B" transform="translate(66,70)"/>
<path d="M0 0 C1.65 1.65 3.3 3.3 5 5 C2.4345406 7.5654594 0.52313332 7.54046087 -3 8 C-2.45276317 4.62537285 -1.9451 2.91765 0 0 Z " fill="#DBDCDC" transform="translate(34,41)"/>
<path d="M0 0 C3.465 1.98 3.465 1.98 7 4 C6.01 6.31 5.02 8.62 4 11 C3.34 10.67 2.68 10.34 2 10 C1.60235737 8.01178687 1.27571139 6.00875442 1 4 C0.68325425 2.66262906 0.35729936 1.32711192 0 0 Z " fill="#E2E3DF" transform="translate(133,201)"/>
<path d="M0 0 C1.32 0.33 2.64 0.66 4 1 C-2.49299641 5.32866427 -8.43779505 5.24220585 -16 5 C-16 4.67 -16 4.34 -16 4 C-13.36 4 -10.72 4 -8 4 C-8 3.34 -8 2.68 -8 2 C-5.36 2 -2.72 2 0 2 C0 1.34 0 0.68 0 0 Z " fill="#FBF9C8" transform="translate(128,192)"/>
<path d="M0 0 C1.67542976 0.28604898 3.34385343 0.61781233 5 1 C5.33 1.99 5.66 2.98 6 4 C5.67 4.66 5.34 5.32 5 6 C3.125 5.75 3.125 5.75 1 5 C-0.25 2.9375 -0.25 2.9375 -1 1 C-0.67 0.67 -0.34 0.34 0 0 Z " fill="#F1F1F0" transform="translate(44,191)"/>
<path d="M0 0 C0 3.57575896 -1.08840607 5.05295935 -3 8 C-3.66 7.34 -4.32 6.68 -5 6 C-7.58354218 5.83312552 -7.58354218 5.83312552 -10 6 C-7.27521226 2.63408573 -3.93143208 1.55773724 0 0 Z " fill="#FCFCE5" transform="translate(154,181)"/>
<path d="M0 0 C0.66 0 1.32 0 2 0 C2 4.29 2 8.58 2 13 C1.67 13 1.34 13 1 13 C0.67 11.02 0.34 9.04 0 7 C-0.33 7.66 -0.66 8.32 -1 9 C-1.66 9 -2.32 9 -3 9 C-2.01 6.03 -1.02 3.06 0 0 Z " fill="#DDDDDB" transform="translate(128,115)"/>
<path d="M0 0 C0.53625 0.515625 1.0725 1.03125 1.625 1.5625 C4.00496499 3.32605545 4.00496499 3.32605545 7.25 2.6875 C8.1575 2.460625 9.065 2.23375 10 2 C9.01 3.485 9.01 3.485 8 5 C7.34 5 6.68 5 6 5 C5.34 6.32 4.68 7.64 4 9 C1.525 5.04 1.525 5.04 -1 1 C-0.67 0.67 -0.34 0.34 0 0 Z " fill="#DAEDF0" transform="translate(171,59)"/>
<path d="M0 0 C0.33 0 0.66 0 1 0 C1 5.28 1 10.56 1 16 C0.01 16 -0.98 16 -2 16 C-2 15.34 -2 14.68 -2 14 C-3.98 14 -5.96 14 -8 14 C-8 13.67 -8 13.34 -8 13 C-5.69 12.34 -3.38 11.68 -1 11 C-0.67 7.37 -0.34 3.74 0 0 Z " fill="#B7B7B6" transform="translate(207,116)"/>
<path d="M0 0 C0.66 2.31 1.32 4.62 2 7 C0.35 7 -1.3 7 -3 7 C-3.185625 6.071875 -3.185625 6.071875 -3.375 5.125 C-3.87197356 2.80879168 -3.87197356 2.80879168 -6 1 C-3.92446352 0.4465236 -2.15634036 0 0 0 Z " fill="#2F8EC1" transform="translate(143,96)"/>
<path d="M0 0 C0.99 0.33 1.98 0.66 3 1 C3.33 3.64 3.66 6.28 4 9 C3.01 9.33 2.02 9.66 1 10 C0.34 7.69 -0.32 5.38 -1 3 C-0.34 3 0.32 3 1 3 C0.67 2.01 0.34 1.02 0 0 Z " fill="#F8EFF6" transform="translate(20,75)"/>
<path d="M0 0 C1.43931117 0.45261358 2.87638999 0.91232979 4.3125 1.375 C5.11300781 1.63023438 5.91351563 1.88546875 6.73828125 2.1484375 C9 3 9 3 12 5 C12 5.66 12 6.32 12 7 C10.02 7.33 8.04 7.66 6 8 C5.67 7.34 5.34 6.68 5 6 C5.99 5.67 6.98 5.34 8 5 C5.36 4.01 2.72 3.02 0 2 C0 1.34 0 0.68 0 0 Z " fill="#404141" transform="translate(9,71)"/>
<path d="M0 0 C1.14266516 3.35897545 0.85911331 5.30450352 -0.3125 8.625 C-0.70888672 9.78902344 -0.70888672 9.78902344 -1.11328125 10.9765625 C-2 13 -2 13 -4 15 C-3.50341703 9.33895411 -2.45489316 5.12325529 0 0 Z " fill="#FDDFD5" transform="translate(61,90)"/>
<path d="M0 0 C2.00124361 0.32578384 4.00102872 0.66055205 6 1 C7.36125 1.12375 7.36125 1.12375 8.75 1.25 C11 2 11 2 12.3125 4.5625 C12.6528125 5.7690625 12.6528125 5.7690625 13 7 C8.50202887 5.31326082 4.27113698 3.18326108 0 1 C0 0.67 0 0.34 0 0 Z " fill="#D6F3FC" transform="translate(136,34)"/>
<path d="M0 0 C0.55171875 0.30679688 1.1034375 0.61359375 1.671875 0.9296875 C4.20540121 2.09442941 6.51171762 2.62057956 9.25 3.125 C10.14203125 3.29257813 11.0340625 3.46015625 11.953125 3.6328125 C12.96632812 3.81457031 12.96632812 3.81457031 14 4 C14 4.33 14 4.66 14 5 C11.36 5 8.72 5 6 5 C6.33 6.65 6.66 8.3 7 10 C5 8 5 8 3.5 5.4375 C2.23133163 2.89593129 2.23133163 2.89593129 0 2 C0 1.34 0 0.68 0 0 Z " fill="#363835" transform="translate(174,168)"/>
<path d="M0 0 C-0.60183749 2.02045442 -1.27306096 4.02111039 -2 6 C-2.99 6.495 -2.99 6.495 -4 7 C-3.67 5.68 -3.34 4.36 -3 3 C-3.928125 3.515625 -4.85625 4.03125 -5.8125 4.5625 C-9 6 -9 6 -12 5 C-10.37750059 4.16180842 -8.75191503 3.3295884 -7.125 2.5 C-6.22007813 2.0359375 -5.31515625 1.571875 -4.3828125 1.09375 C-2 0 -2 0 0 0 Z " fill="#302E30" transform="translate(22,149)"/>
<path d="M0 0 C1.65 0 3.3 0 5 0 C3.625 2 3.625 2 2 4 C1.34 4 0.68 4 0 4 C0 4.66 0 5.32 0 6 C-1.98 6.66 -3.96 7.32 -6 8 C-5.67 7.01 -5.34 6.02 -5 5 C-3.68 5 -2.36 5 -1 5 C-0.67 3.35 -0.34 1.7 0 0 Z " fill="#EFED4E" transform="translate(128,142)"/>
<path d="M0 0 C0.66 1.32 1.32 2.64 2 4 C1.34 4 0.68 4 0 4 C-0.33 5.98 -0.66 7.96 -1 10 C-1.99 10 -2.98 10 -4 10 C-3.29445932 6.33118845 -1.72264494 3.29549466 0 0 Z " fill="#E5202A" transform="translate(56,92)"/>
<path d="M0 0 C0.66 0.33 1.32 0.66 2 1 C0.515 7.435 0.515 7.435 -1 14 C-3 12 -3 12 -3.046875 9.94140625 C-2.89992188 8.76384766 -2.89992188 8.76384766 -2.75 7.5625 C-2.66234375 6.78003906 -2.5746875 5.99757813 -2.484375 5.19140625 C-2 3 -2 3 0 0 Z " fill="#FDECE9" transform="translate(21,90)"/>
<path d="M0 0 C0 0.33 0 0.66 0 1 C-2.26999825 1.50377768 -4.54103003 2.00290019 -6.8125 2.5 C-8.70935547 2.91765625 -8.70935547 2.91765625 -10.64453125 3.34375 C-14 4 -14 4 -17 4 C-16.67 3.01 -16.34 2.02 -16 1 C-10.62915894 0.31798844 -5.41499441 -0.11521265 0 0 Z " fill="#FDD8D4" transform="translate(96,28)"/>
<path d="M0 0 C2.64 0 5.28 0 8 0 C7.01 0.495 7.01 0.495 6 1 C5.67 1.66 5.34 2.32 5 3 C4.01 3.33 3.02 3.66 2 4 C1.26676204 6.01508358 1.26676204 6.01508358 1 8 C0.67 5.36 0.34 2.72 0 0 Z " fill="#CFCFCF" transform="translate(180,173)"/>
<path d="M0 0 C7.48291572 6.15034169 7.48291572 6.15034169 10 10 C9.67 10.66 9.34 11.32 9 12 C7.99403703 11.0479279 6.99538437 10.08812654 6 9.125 C5.443125 8.59132813 4.88625 8.05765625 4.3125 7.5078125 C3 6 3 6 3 4 C2.34 4 1.68 4 1 4 C0.67 2.68 0.34 1.36 0 0 Z " fill="#418EB6" transform="translate(161,51)"/>
<path d="M0 0 C0.66 0.66 1.32 1.32 2 2 C-0.64 4.97 -3.28 7.94 -6 11 C-6.33 9.68 -6.66 8.36 -7 7 C-6.01 6.67 -5.02 6.34 -4 6 C-4 5.01 -4 4.02 -4 3 C-3.01 2.67 -2.02 2.34 -1 2 C-0.67 1.34 -0.34 0.68 0 0 Z " fill="#FDE5E4" transform="translate(44,50)"/>
<path d="M0 0 C0.66 0 1.32 0 2 0 C2 1.65 2 3.3 2 5 C0.68 5.33 -0.64 5.66 -2 6 C-2 7.65 -2 9.3 -2 11 C-2.66 11 -3.32 11 -4 11 C-2.95902388 7.13351728 -1.96301592 3.50538557 0 0 Z " fill="#FCF9B1" transform="translate(181,144)"/>
<path d="M0 0 C0.99 0 1.98 0 3 0 C3.33 1.98 3.66 3.96 4 6 C4.66 6 5.32 6 6 6 C5.67 6.99 5.34 7.98 5 9 C4.34 9 3.68 9 3 9 C2.01 6.03 1.02 3.06 0 0 Z " fill="#282828" transform="translate(118,115)"/>
<path d="M0 0 C0.33 0.66 0.66 1.32 1 2 C2.98 2 4.96 2 7 2 C7 2.99 7 3.98 7 5 C4.69 5 2.38 5 0 5 C0 3.35 0 1.7 0 0 Z " fill="#272624" transform="translate(165,120)"/>
<path d="M0 0 C2.31 0 4.62 0 7 0 C7 0.99 7 1.98 7 3 C7.99 3.33 8.98 3.66 10 4 C7.69 4 5.38 4 3 4 C3 3.34 3 2.68 3 2 C2.01 1.67 1.02 1.34 0 1 C0 0.67 0 0.34 0 0 Z " fill="#F8FEF8" transform="translate(121,71)"/>
<path d="M0 0 C0.99 0.66 1.98 1.32 3 2 C-1.75 6 -1.75 6 -4 6 C-4 5.34 -4 4.68 -4 4 C-4.66 3.67 -5.32 3.34 -6 3 C-3 1 -3 1 0 0 Z " fill="#F9E6E5" transform="translate(53,42)"/>
<path d="M0 0 C1.32 0 2.64 0 4 0 C3.67 1.32 3.34 2.64 3 4 C1.02 4.33 -0.96 4.66 -3 5 C-1.125 1.125 -1.125 1.125 0 0 Z " fill="#F6F6F6" transform="translate(162,191)"/>
<path d="M0 0 C0.66 0 1.32 0 2 0 C2.33 0.66 2.66 1.32 3 2 C3.99 2.66 4.98 3.32 6 4 C3 6 3 6 0 6 C0 4.02 0 2.04 0 0 Z M4 1 C5.32 1.33 6.64 1.66 8 2 C7.01 2.495 7.01 2.495 6 3 C5.34 2.34 4.68 1.68 4 1 Z " fill="#352F72" transform="translate(72,185)"/>
<path d="M0 0 C2.5 2.3125 2.5 2.3125 5 5 C5 5.99 5 6.98 5 8 C3.68 8 2.36 8 1 8 C0.67 5.36 0.34 2.72 0 0 Z " fill="#262261" transform="translate(36,155)"/>
<path d="M0 0 C1.32 0.33 2.64 0.66 4 1 C3.34 1 2.68 1 2 1 C1.67 1.99 1.34 2.98 1 4 C-1.875 4.625 -1.875 4.625 -5 5 C-5.66 4.34 -6.32 3.68 -7 3 C-4 2 -4 2 -1 3 C-0.67 2.01 -0.34 1.02 0 0 Z " fill="#E8E9EF" transform="translate(92,153)"/>
<path d="M0 0 C2.50037734 2.17424117 3.43628586 3.73045798 4 7 C3.01 7.33 2.02 7.66 1 8 C-0.42944945 5.64561267 -1.08661261 4.51967567 -0.625 1.75 C-0.41875 1.1725 -0.2125 0.595 0 0 Z " fill="#E7E6E6" transform="translate(211,125)"/>
<path d="M0 0 C2.31 0 4.62 0 7 0 C7 0.99 7 1.98 7 3 C4.69 3.33 2.38 3.66 0 4 C0 2.68 0 1.36 0 0 Z " fill="#1F1E1C" transform="translate(165,115)"/>
<path d="M0 0 C1.53166168 4.08443115 0.63081652 7.79455657 0 12 C-0.99 12.33 -1.98 12.66 -3 13 C-2.68991116 11.39536551 -2.37683713 9.79130769 -2.0625 8.1875 C-1.88847656 7.29417969 -1.71445312 6.40085937 -1.53515625 5.48046875 C-1 3 -1 3 0 0 Z " fill="#BE3D43" transform="translate(24,85)"/>
<path d="M0 0 C0.99 0.66 1.98 1.32 3 2 C3 2.66 3 3.32 3 4 C1.35 4.33 -0.3 4.66 -2 5 C-2 5.66 -2 6.32 -2 7 C-2.66 6.67 -3.32 6.34 -4 6 C-4 5.01 -4 4.02 -4 3 C-2 1.3125 -2 1.3125 0 0 Z " fill="#CE3231" transform="translate(53,45)"/>
<path d="M0 0 C1.485 0.99 1.485 0.99 3 2 C3.1875 4.625 3.1875 4.625 3 7 C2.01 7 1.02 7 0 7 C-1.125 2.25 -1.125 2.25 0 0 Z " fill="#F6F3F3" transform="translate(81,17)"/>
<path d="M0 0 C-2 2 -2 2 -5 3 C-5.66 3.66 -6.32 4.32 -7 5 C-7.33 3.35 -7.66 1.7 -8 0 C-4.71023192 -1.09658936 -3.28696233 -0.79953138 0 0 Z " fill="#DBDBDB" transform="translate(72,18)"/>
<path d="M0 0 C2.92879371 0.62759865 5.36095629 1.58622659 8 3 C5.64561267 4.42944945 4.51967567 5.08661261 1.75 4.625 C1.1725 4.41875 0.595 4.2125 0 4 C0 2.68 0 1.36 0 0 Z " fill="#F4E838" transform="translate(128,187)"/>
<path d="M0 0 C1.32 0.33 2.64 0.66 4 1 C3.67 2.32 3.34 3.64 3 5 C1.35 5 -0.3 5 -2 5 C-1.34 3.35 -0.68 1.7 0 0 Z " fill="#FEFCEA" transform="translate(125,148)"/>
<path d="M0 0 C0 0.66 0 1.32 0 2 C-4.29 2.66 -8.58 3.32 -13 4 C-13 3.34 -13 2.68 -13 2 C-8.49646738 0.24252386 -4.82360189 -0.19294408 0 0 Z " fill="#3E3E3E" transform="translate(16,130)"/>
<path d="M0 0 C0.33 0 0.66 0 1 0 C1 2.31 1 4.62 1 7 C-0.65 7.33 -2.3 7.66 -4 8 C-4.33 7.34 -4.66 6.68 -5 6 C-3.68 6 -2.36 6 -1 6 C-1.020625 5.195625 -1.04125 4.39125 -1.0625 3.5625 C-1 1 -1 1 0 0 Z " fill="#11100E" transform="translate(149,117)"/>
<path d="M0 0 C0 0.99 0 1.98 0 3 C-3.37462715 2.45276317 -5.08235 1.9451 -8 0 C-4.71023192 -1.09658936 -3.28696233 -0.79953138 0 0 Z " fill="#F2F0EE" transform="translate(17,80)"/>
<path d="M0 0 C3.3 0 6.6 0 10 0 C7.7448078 2.2551922 5.9952413 2.97723468 3 4 C2.01 4 1.02 4 0 4 C0 2.68 0 1.36 0 0 Z " fill="#ECEC63" transform="translate(112,150)"/>
<path d="M0 0 C1.32 0 2.64 0 4 0 C4 1.65 4 3.3 4 5 C2.68 5 1.36 5 0 5 C0 3.35 0 1.7 0 0 Z " fill="#E4E3E1" transform="translate(144,118)"/>
<path d="M0 0 C2.31 0 4.62 0 7 0 C7 0.99 7 1.98 7 3 C5.02 3 3.04 3 1 3 C0.67 2.01 0.34 1.02 0 0 Z " fill="#21201E" transform="translate(198,115)"/>
<path d="M0 0 C2.97 0 5.94 0 9 0 C9 0.33 9 0.66 9 1 C7.35 1 5.7 1 4 1 C4.33 2.32 4.66 3.64 5 5 C4.01 5.33 3.02 5.66 2 6 C2 4.35 2 2.7 2 1 C1.34 0.67 0.68 0.34 0 0 Z " fill="#EAE9E7" transform="translate(182,114)"/>
<path d="M0 0 C0.99 0.33 1.98 0.66 3 1 C3 2.98 3 4.96 3 7 C4.98 7 6.96 7 9 7 C9 7.33 9 7.66 9 8 C6.69 8 4.38 8 2 8 C1.34 5.36 0.68 2.72 0 0 Z " fill="#3787B1" transform="translate(149,96)"/>
<path d="M0 0 C2.25 -0.3125 2.25 -0.3125 5 0 C7.3125 2.5 7.3125 2.5 9 5 C4.98525763 5 3.18024863 3.33218233 0 1 C0 0.67 0 0.34 0 0 Z " fill="#D9F5FC" transform="translate(149,41)"/>
<path d="M0 0 C3.3 0.99 6.6 1.98 10 3 C9.01 3.33 8.02 3.66 7 4 C6.34 3.67 5.68 3.34 5 3 C4.34 4.32 3.68 5.64 3 7 C3 5.35 3 3.7 3 2 C2.01 1.67 1.02 1.34 0 1 C0 0.67 0 0.34 0 0 Z " fill="#434343" transform="translate(131,13)"/>
<path d="M0 0 C0.99 0.33 1.98 0.66 3 1 C2.75 2.875 2.75 2.875 2 5 C-0.0625 6.25 -0.0625 6.25 -2 7 C-1.34 4.69 -0.68 2.38 0 0 Z " fill="#EFEFEF" transform="translate(18,161)"/>
<path d="M0 0 C1.98 0 3.96 0 6 0 C5.39816251 2.02045442 4.72693904 4.02111039 4 6 C3.01 6.495 3.01 6.495 2 7 C2.04125 6.21625 2.0825 5.4325 2.125 4.625 C2.28728734 1.83883881 2.28728734 1.83883881 0 0 Z " fill="#EAE847" transform="translate(176,142)"/>
<path d="M0 0 C1.32 0 2.64 0 4 0 C4.33 1.98 4.66 3.96 5 6 C3.0625 5.25 3.0625 5.25 1 4 C0.25 1.875 0.25 1.875 0 0 Z " fill="#F2F2F2" transform="translate(12,137)"/>
<path d="M0 0 C0.99 0.33 1.98 0.66 3 1 C4.1875 4.0625 4.1875 4.0625 5 7 C4.01 7 3.02 7 2 7 C0.5393715 4.35261084 0 3.10551666 0 0 Z " fill="#1F1F1E" transform="translate(213,125)"/>
<path d="M0 0 C0.66 0 1.32 0 2 0 C3.38938077 1.96147874 4.7260411 3.96166576 6 6 C4.33388095 6.042721 2.66617115 6.04063832 1 6 C0 5 0 5 -0.0625 2.4375 C-0.041875 1.633125 -0.02125 0.82875 0 0 Z " fill="#A6A6A6" transform="translate(0,122)"/>
<path d="M0 0 C1.32 0 2.64 0 4 0 C3.67 1.65 3.34 3.3 3 5 C2.01 5 1.02 5 0 5 C0 3.35 0 1.7 0 0 Z " fill="#E8E7E5" transform="translate(155,118)"/>
<path d="M0 0 C0.99 0.33 1.98 0.66 3 1 C2.34 2.32 1.68 3.64 1 5 C-0.32 4.67 -1.64 4.34 -3 4 C-2.01 2.68 -1.02 1.36 0 0 Z " fill="#E02130" transform="translate(75,93)"/>
<path d="M0 0 C0.66 0.33 1.32 0.66 2 1 C1 3 0 5 -1 7 C-1.66 7 -2.32 7 -3 7 C-2.25 2.25 -2.25 2.25 0 0 Z " fill="#FBFCFA" transform="translate(65,87)"/>
<path d="M0 0 C0.66 0.66 1.32 1.32 2 2 C-1.465 4.97 -1.465 4.97 -5 8 C-5 5 -5 5 -3.625 3.3125 C-2 2 -2 2 0 2 C0 1.34 0 0.68 0 0 Z " fill="#FBD4D0" transform="translate(76,78)"/>
<path d="M0 0 C1.98 0.99 3.96 1.98 6 3 C6 3.66 6 4.32 6 5 C3.0625 4.625 3.0625 4.625 0 4 C-0.33 3.34 -0.66 2.68 -1 2 C-0.67 1.34 -0.34 0.68 0 0 Z " fill="#3A8FC4" transform="translate(121,74)"/>
<path d="M0 0 C0.99 0.33 1.98 0.66 3 1 C3.75241109 4.65456815 4.40049704 8.31733897 5 12 C2.65085508 9.65085508 2.26859643 8.04320554 1.375 4.875 C1.11460937 3.96492187 0.85421875 3.05484375 0.5859375 2.1171875 C0.39257812 1.41851562 0.19921875 0.71984375 0 0 Z " fill="#252525" transform="translate(131,199)"/>
<path d="M0 0 C2.31 0.33 4.62 0.66 7 1 C6.67 1.99 6.34 2.98 6 4 C4.02 3.34 2.04 2.68 0 2 C0 1.34 0 0.68 0 0 Z " fill="#2F2C5D" transform="translate(66,186)"/>
<path d="M0 0 C2.88575819 0.39803561 3.82189513 0.79009069 5.75 3.0625 C6.1625 3.701875 6.575 4.34125 7 5 C3.89448334 5 2.64738916 4.4606285 0 3 C0 2.01 0 1.02 0 0 Z " fill="#211D53" transform="translate(64,143)"/>
<path d="M0 0 C0.33 0.99 0.66 1.98 1 3 C1.99 3.33 2.98 3.66 4 4 C3.67 4.99 3.34 5.98 3 7 C2.01 6.67 1.02 6.34 0 6 C-0.75 4.0625 -0.75 4.0625 -1 2 C-0.67 1.34 -0.34 0.68 0 0 Z " fill="#302876" transform="translate(58,137)"/>
<path d="M0 0 C1.98 0.66 3.96 1.32 6 2 C6 2.66 6 3.32 6 4 C4.02 4.33 2.04 4.66 0 5 C0 3.35 0 1.7 0 0 Z " fill="#252422" transform="translate(154,122)"/>
<path d="M0 0 C0.99 0.33 1.98 0.66 3 1 C1.35 2.98 -0.3 4.96 -2 7 C-2.33 6.01 -2.66 5.02 -3 4 C-1.5625 1.8125 -1.5625 1.8125 0 0 Z " fill="#1D1C1B" transform="translate(215,115)"/>
<path d="M0 0 C1.25541557 3.76624671 0.37061958 5.37188934 -1 9 C-1.99 8.67 -2.98 8.34 -4 8 C-2.68 5.36 -1.36 2.72 0 0 Z " fill="#C6393C" transform="translate(69,88)"/>
<path d="M0 0 C1.65 0 3.3 0 5 0 C5.33 1.98 5.66 3.96 6 6 C3.97945196 4.35830472 1.97956942 2.69088222 0 1 C0 0.67 0 0.34 0 0 Z " fill="#308BB4" transform="translate(136,76)"/>
<path d="M0 0 C0.99 0.33 1.98 0.66 3 1 C3.6875 3.0625 3.6875 3.0625 4 5 C2.35 5 0.7 5 -1 5 C-0.67 3.35 -0.34 1.7 0 0 Z " fill="#3588B6" transform="translate(171,64)"/>
<path d="M0 0 C0.99 0.33 1.98 0.66 3 1 C3 1.66 3 2.32 3 3 C2.34 3 1.68 3 1 3 C0.67 5.97 0.34 8.94 0 12 C-0.33 12 -0.66 12 -1 12 C-0.67 8.04 -0.34 4.08 0 0 Z " fill="#272727" transform="translate(111,10)"/>
<path d="M0 0 C1.32 0.33 2.64 0.66 4 1 C2.25 4.875 2.25 4.875 0 6 C0 4.02 0 2.04 0 0 Z " fill="#DBDBDB" transform="translate(62,199)"/>
<path d="M0 0 C2 3 2 3 1.625 5.1875 C1.41875 5.785625 1.2125 6.38375 1 7 C-0.32 5.35 -1.64 3.7 -3 2 C-2.01 1.34 -1.02 0.68 0 0 Z " fill="#D9D9D9" transform="translate(151,195)"/>
<path d="M0 0 C2 1 2 1 4 4 C1.69 4 -0.62 4 -3 4 C-3.33 3.34 -3.66 2.68 -4 2 C-2.125 0.9375 -2.125 0.9375 0 0 Z " fill="#342B72" transform="translate(81,155)"/>
<path d="M0 0 C1.98 0 3.96 0 6 0 C5.67 0.99 5.34 1.98 5 3 C2.69 3 0.38 3 -2 3 C-1.34 2.67 -0.68 2.34 0 2 C0 1.34 0 0.68 0 0 Z " fill="#FAFEF6" transform="translate(86,153)"/>
<path d="M0 0 C0.99 0.33 1.98 0.66 3 1 C3.33 1.99 3.66 2.98 4 4 C5.49985609 5.66710346 5.49985609 5.66710346 7 7 C6.01 7 5.02 7 4 7 C0 2.65714286 0 2.65714286 0 0 Z " fill="#252155" transform="translate(69,134)"/>
<path d="M0 0 C3.875 0.875 3.875 0.875 5 2 C5.04063832 3.66617115 5.042721 5.33388095 5 7 C4.67 6.01 4.34 5.02 4 4 C3.01 4 2.02 4 1 4 C0.67 2.68 0.34 1.36 0 0 Z " fill="#F9FBF8" transform="translate(176,63)"/>
<path d="M0 0 C0.75 1.75 0.75 1.75 1 4 C-0.9375 6.25 -0.9375 6.25 -3 8 C-3.36923077 3.44615385 -3.36923077 3.44615385 -1.5 1.1875 C-1.005 0.795625 -0.51 0.40375 0 0 Z " fill="#959999" transform="translate(37,50)"/>
<path d="M0 0 C0.33 0 0.66 0 1 0 C1.33 3.63 1.66 7.26 2 11 C1.01 10.67 0.02 10.34 -1 10 C-0.67 6.7 -0.34 3.4 0 0 Z " fill="#D6D7D2" transform="translate(158,33)"/>
<path d="M0 0 C1.258125 0.12375 2.51625 0.2475 3.8125 0.375 C4.87404297 0.47941406 4.87404297 0.47941406 5.95703125 0.5859375 C8 1 8 1 11 3 C9.54257537 3.08096803 8.08387193 3.13917774 6.625 3.1875 C5.81289063 3.22230469 5.00078125 3.25710937 4.1640625 3.29296875 C3.44992188 3.19628906 2.73578125 3.09960938 2 3 C1.34 2.01 0.68 1.02 0 0 Z " fill="#292929" transform="translate(32,38)"/>
</svg>
